G04*
G04 #@! TF.GenerationSoftware,Altium Limited,Altium Designer,25.6.2 (33)*
G04*
G04 Layer_Color=16711935*
%FSLAX44Y44*%
%MOMM*%
G71*
G04*
G04 #@! TF.SameCoordinates,8FAB441B-F1FE-446A-B751-D3DFCEB5FBC4*
G04*
G04*
G04 #@! TF.FilePolarity,Negative*
G04*
G01*
G75*
%ADD49C,1.1500*%
%ADD50R,1.1500X1.1500*%
%ADD51C,2.3032*%
%ADD52R,1.8032X1.8032*%
%ADD53C,1.8032*%
%ADD54C,0.8128*%
%ADD55C,1.2032*%
%ADD56R,1.8682X1.8682*%
%ADD57C,1.8682*%
%ADD58C,4.0132*%
%ADD59C,1.4732*%
D49*
X1702107Y1159255D02*
D03*
X1686304Y1175057D02*
D03*
X1663956Y1121103D02*
D03*
D50*
X1648153Y1136906D02*
D03*
D51*
X722630Y1069340D02*
D03*
Y1018540D02*
D03*
D52*
X761130Y1165860D02*
D03*
D53*
X811130D02*
D03*
D54*
X334264Y1007364D02*
D03*
X346202D02*
D03*
X384302D02*
D03*
X334264Y895096D02*
D03*
X346202D02*
D03*
X376428D02*
D03*
X384302D02*
D03*
X376428Y1007364D02*
D03*
D55*
X379222Y650494D02*
D03*
X458978D02*
D03*
D56*
X600990Y637540D02*
D03*
X1443990Y510540D02*
D03*
D57*
X600990Y662940D02*
D03*
Y688340D02*
D03*
Y713740D02*
D03*
X1443990Y535940D02*
D03*
Y561340D02*
D03*
Y586740D02*
D03*
Y612140D02*
D03*
Y637540D02*
D03*
Y662940D02*
D03*
Y688340D02*
D03*
Y713740D02*
D03*
Y739140D02*
D03*
Y764540D02*
D03*
Y789940D02*
D03*
Y815340D02*
D03*
Y840740D02*
D03*
D58*
X600990Y430440D02*
D03*
Y920840D02*
D03*
X1433990Y430440D02*
D03*
Y920840D02*
D03*
D59*
X1354950Y1136510D02*
D03*
X1373750Y1047614D02*
D03*
X662630Y1091128D02*
D03*
X974344Y1140968D02*
D03*
X1024128Y1069340D02*
D03*
X1642110Y725932D02*
D03*
X1615186Y558546D02*
D03*
X1673606Y712986D02*
D03*
X1622044Y776478D02*
D03*
X1346962Y956818D02*
D03*
X1354074Y1089660D02*
D03*
X1337450Y1121103D02*
D03*
X1393698Y839470D02*
D03*
X1600200Y775970D02*
D03*
X1548892Y1036066D02*
D03*
X1417180D02*
D03*
X1731518Y941578D02*
D03*
X1086358Y993140D02*
D03*
X1512570Y705358D02*
D03*
X1590548Y659638D02*
D03*
X1626870Y654558D02*
D03*
X517144Y675640D02*
D03*
X338074Y604266D02*
D03*
X1501083Y619760D02*
D03*
X410972Y1049528D02*
D03*
X618490Y1043940D02*
D03*
X623316Y610108D02*
D03*
X1092708Y663702D02*
D03*
X432308Y915670D02*
D03*
X1279144Y1025906D02*
D03*
X1612646Y956056D02*
D03*
X1274572Y989330D02*
D03*
X1306830Y891540D02*
D03*
X1327150Y977138D02*
D03*
X1013968Y1052068D02*
D03*
X1068324Y1126998D02*
D03*
X952754Y1131316D02*
D03*
X932942Y1162812D02*
D03*
X1023620Y1169924D02*
D03*
X505714Y1036320D02*
D03*
X1290574Y1076452D02*
D03*
X1620200D02*
D03*
X1331976D02*
D03*
X673100Y891540D02*
D03*
X465074D02*
D03*
X1564386Y738886D02*
D03*
X1559306Y714248D02*
D03*
X1157478Y880618D02*
D03*
X1495806Y748030D02*
D03*
X1223518Y776732D02*
D03*
X1673352Y742442D02*
D03*
X1421638Y783082D02*
D03*
X1683766Y772160D02*
D03*
X1188974Y1189990D02*
D03*
X1241920Y1020826D02*
D03*
X1605026Y629920D02*
D03*
X357124Y690880D02*
D03*
X1468374Y632460D02*
D03*
X1675270Y526542D02*
D03*
X1550670Y537464D02*
D03*
X360680Y496316D02*
D03*
X1572260Y527304D02*
D03*
X1467104Y1050290D02*
D03*
X1600200D02*
D03*
X1660398Y514096D02*
D03*
X441868Y459070D02*
D03*
X488696Y325882D02*
D03*
X1660398Y497078D02*
D03*
M02*
