G04*
G04 #@! TF.GenerationSoftware,Altium Limited,Altium Designer,25.6.2 (33)*
G04*
G04 Layer_Color=2752767*
%FSLAX44Y44*%
%MOMM*%
G71*
G04*
G04 #@! TF.SameCoordinates,8FAB441B-F1FE-446A-B751-D3DFCEB5FBC4*
G04*
G04*
G04 #@! TF.FilePolarity,Positive*
G04*
G01*
G75*
%ADD15C,0.1270*%
%ADD94C,0.1693*%
D15*
X1699567Y1156714D02*
Y1154174D01*
X1704647D01*
Y1156714D01*
X1707187D01*
Y1161795D01*
X1704647D01*
Y1164334D01*
X1699567D01*
Y1161795D01*
X1697027D01*
Y1156714D01*
X1699567D01*
X1683764Y1172517D02*
Y1169977D01*
X1688844D01*
Y1172517D01*
X1691384D01*
Y1177597D01*
X1688844D01*
Y1180137D01*
X1683764D01*
Y1177597D01*
X1681225D01*
Y1172517D01*
X1683764D01*
X1661416Y1118563D02*
Y1116023D01*
X1666496D01*
Y1118563D01*
X1669035D01*
Y1123643D01*
X1666496D01*
Y1126183D01*
X1661416D01*
Y1123643D01*
X1658875D01*
Y1118563D01*
X1661416D01*
X1645613Y1134365D02*
Y1131825D01*
X1650693D01*
Y1134365D01*
X1653233D01*
Y1139445D01*
X1650693D01*
Y1141985D01*
X1645613D01*
Y1139445D01*
X1643073D01*
Y1134365D01*
X1645613D01*
X717550Y1064260D02*
X720090Y1069340D01*
X717550Y1074420D01*
X722630Y1071880D01*
X727710Y1074420D01*
X725170Y1069340D01*
X727710Y1064260D01*
X722630Y1066800D01*
X717550Y1064260D01*
Y1013460D02*
X720090Y1018540D01*
X717550Y1023620D01*
X722630Y1021080D01*
X727710Y1023620D01*
X725170Y1018540D01*
X727710Y1013460D01*
X722630Y1016000D01*
X717550Y1013460D01*
X756050Y1160780D02*
X758590D01*
X761130Y1163320D01*
X763670Y1160780D01*
X766210D01*
Y1163320D01*
X763670Y1165860D01*
X766210Y1168400D01*
Y1170940D01*
X763670D01*
X761130Y1168400D01*
X758590Y1170940D01*
X756050D01*
Y1168400D01*
X758590Y1165860D01*
X756050Y1163320D01*
Y1160780D01*
X806050D02*
X808590D01*
X811130Y1163320D01*
X813670Y1160780D01*
X816210D01*
Y1163320D01*
X813670Y1165860D01*
X816210Y1168400D01*
Y1170940D01*
X813670D01*
X811130Y1168400D01*
X808590Y1170940D01*
X806050D01*
Y1168400D01*
X808590Y1165860D01*
X806050Y1163320D01*
Y1160780D01*
X329184Y1002284D02*
Y1012444D01*
X339344D01*
Y1002284D01*
X329184D01*
X341122D02*
Y1012444D01*
X351282D01*
Y1002284D01*
X341122D01*
X379222D02*
Y1012444D01*
X389382D01*
Y1002284D01*
X379222D01*
X329184Y890016D02*
Y900176D01*
X339344D01*
Y890016D01*
X329184D01*
X341122D02*
Y900176D01*
X351282D01*
Y890016D01*
X341122D01*
X371348D02*
Y900176D01*
X381508D01*
Y890016D01*
X371348D01*
X379222D02*
Y900176D01*
X389382D01*
Y890016D01*
X379222D01*
X371348Y1002284D02*
Y1012444D01*
X381508D01*
Y1002284D01*
X371348D01*
X379222Y645414D02*
X381762Y647954D01*
X384302D01*
X381762Y650494D01*
X384302Y653034D01*
X381762D01*
X379222Y655574D01*
X376682Y653034D01*
X374142D01*
X376682Y650494D01*
X374142Y647954D01*
X376682D01*
X379222Y645414D01*
X458978D02*
X461518Y647954D01*
X464058D01*
X461518Y650494D01*
X464058Y653034D01*
X461518D01*
X458978Y655574D01*
X456438Y653034D01*
X453898D01*
X456438Y650494D01*
X453898Y647954D01*
X456438D01*
X458978Y645414D01*
X600990Y425360D02*
X595910Y435520D01*
X606070D01*
X600990Y425360D01*
Y915760D02*
X595910Y925920D01*
X606070D01*
X600990Y915760D01*
X1433990Y425360D02*
X1428910Y435520D01*
X1439070D01*
X1433990Y425360D01*
Y915760D02*
X1428910Y925920D01*
X1439070D01*
X1433990Y915760D01*
X1349870Y1136510D02*
X1354950Y1141590D01*
X1360030Y1136510D01*
X1354950Y1131430D01*
X1349870Y1136510D01*
X1368670Y1047614D02*
X1373750Y1052694D01*
X1378830Y1047614D01*
X1373750Y1042534D01*
X1368670Y1047614D01*
X657550Y1091128D02*
X662630Y1096208D01*
X667710Y1091128D01*
X662630Y1086048D01*
X657550Y1091128D01*
X969264Y1140968D02*
X974344Y1146048D01*
X979424Y1140968D01*
X974344Y1135888D01*
X969264Y1140968D01*
X1019048Y1069340D02*
X1024128Y1074420D01*
X1029208Y1069340D01*
X1024128Y1064260D01*
X1019048Y1069340D01*
X1637030Y725932D02*
X1642110Y731012D01*
X1647190Y725932D01*
X1642110Y720852D01*
X1637030Y725932D01*
X1610106Y558546D02*
X1615186Y563626D01*
X1620266Y558546D01*
X1615186Y553466D01*
X1610106Y558546D01*
X1668526Y712986D02*
X1673606Y718066D01*
X1678686Y712986D01*
X1673606Y707906D01*
X1668526Y712986D01*
X1616964Y776478D02*
X1622044Y781558D01*
X1627124Y776478D01*
X1622044Y771398D01*
X1616964Y776478D01*
X1341882Y956818D02*
X1346962Y961898D01*
X1352042Y956818D01*
X1346962Y951738D01*
X1341882Y956818D01*
X1348994Y1089660D02*
X1354074Y1094740D01*
X1359154Y1089660D01*
X1354074Y1084580D01*
X1348994Y1089660D01*
X1332370Y1121103D02*
X1337450Y1126183D01*
X1342530Y1121103D01*
X1337450Y1116023D01*
X1332370Y1121103D01*
X1388618Y839470D02*
X1393698Y844550D01*
X1398778Y839470D01*
X1393698Y834390D01*
X1388618Y839470D01*
X1595120Y775970D02*
X1600200Y781050D01*
X1605280Y775970D01*
X1600200Y770890D01*
X1595120Y775970D01*
X1543812Y1036066D02*
X1548892Y1041146D01*
X1553972Y1036066D01*
X1548892Y1030986D01*
X1543812Y1036066D01*
X1412100D02*
X1417180Y1041146D01*
X1422260Y1036066D01*
X1417180Y1030986D01*
X1412100Y1036066D01*
X1726438Y941578D02*
X1731518Y946658D01*
X1736598Y941578D01*
X1731518Y936498D01*
X1726438Y941578D01*
X1081278Y993140D02*
X1086358Y998220D01*
X1091438Y993140D01*
X1086358Y988060D01*
X1081278Y993140D01*
X1507490Y705358D02*
X1512570Y710438D01*
X1517650Y705358D01*
X1512570Y700278D01*
X1507490Y705358D01*
X1585468Y659638D02*
X1590548Y664718D01*
X1595628Y659638D01*
X1590548Y654558D01*
X1585468Y659638D01*
X1621790Y654558D02*
X1626870Y659638D01*
X1631950Y654558D01*
X1626870Y649478D01*
X1621790Y654558D01*
X512064Y675640D02*
X517144Y680720D01*
X522224Y675640D01*
X517144Y670560D01*
X512064Y675640D01*
X332994Y604266D02*
X338074Y609346D01*
X343154Y604266D01*
X338074Y599186D01*
X332994Y604266D01*
X1496003Y619760D02*
X1501083Y624840D01*
X1506163Y619760D01*
X1501083Y614680D01*
X1496003Y619760D01*
X405892Y1049528D02*
X410972Y1054608D01*
X416052Y1049528D01*
X410972Y1044448D01*
X405892Y1049528D01*
X613410Y1043940D02*
X618490Y1049020D01*
X623570Y1043940D01*
X618490Y1038860D01*
X613410Y1043940D01*
X618236Y610108D02*
X623316Y615188D01*
X628396Y610108D01*
X623316Y605028D01*
X618236Y610108D01*
X1087628Y663702D02*
X1092708Y668782D01*
X1097788Y663702D01*
X1092708Y658622D01*
X1087628Y663702D01*
X427228Y915670D02*
X432308Y920750D01*
X437388Y915670D01*
X432308Y910590D01*
X427228Y915670D01*
X1274064Y1025906D02*
X1279144Y1030986D01*
X1284224Y1025906D01*
X1279144Y1020826D01*
X1274064Y1025906D01*
X1607566Y956056D02*
X1612646Y961136D01*
X1617726Y956056D01*
X1612646Y950976D01*
X1607566Y956056D01*
X1269492Y989330D02*
X1274572Y994410D01*
X1279652Y989330D01*
X1274572Y984250D01*
X1269492Y989330D01*
X1301750Y891540D02*
X1306830Y896620D01*
X1311910Y891540D01*
X1306830Y886460D01*
X1301750Y891540D01*
X1322070Y977138D02*
X1327150Y982218D01*
X1332230Y977138D01*
X1327150Y972058D01*
X1322070Y977138D01*
X1008888Y1052068D02*
X1013968Y1057148D01*
X1019048Y1052068D01*
X1013968Y1046988D01*
X1008888Y1052068D01*
X1063244Y1126998D02*
X1068324Y1132078D01*
X1073404Y1126998D01*
X1068324Y1121918D01*
X1063244Y1126998D01*
X947674Y1131316D02*
X952754Y1136396D01*
X957834Y1131316D01*
X952754Y1126236D01*
X947674Y1131316D01*
X927862Y1162812D02*
X932942Y1167892D01*
X938022Y1162812D01*
X932942Y1157732D01*
X927862Y1162812D01*
X1018540Y1169924D02*
X1023620Y1175004D01*
X1028700Y1169924D01*
X1023620Y1164844D01*
X1018540Y1169924D01*
X500634Y1036320D02*
X505714Y1041400D01*
X510794Y1036320D01*
X505714Y1031240D01*
X500634Y1036320D01*
X1285494Y1076452D02*
X1290574Y1081532D01*
X1295654Y1076452D01*
X1290574Y1071372D01*
X1285494Y1076452D01*
X1615120D02*
X1620200Y1081532D01*
X1625280Y1076452D01*
X1620200Y1071372D01*
X1615120Y1076452D01*
X1326896D02*
X1331976Y1081532D01*
X1337056Y1076452D01*
X1331976Y1071372D01*
X1326896Y1076452D01*
X668020Y891540D02*
X673100Y896620D01*
X678180Y891540D01*
X673100Y886460D01*
X668020Y891540D01*
X459994D02*
X465074Y896620D01*
X470154Y891540D01*
X465074Y886460D01*
X459994Y891540D01*
X1559306Y738886D02*
X1564386Y743966D01*
X1569466Y738886D01*
X1564386Y733806D01*
X1559306Y738886D01*
X1554226Y714248D02*
X1559306Y719328D01*
X1564386Y714248D01*
X1559306Y709168D01*
X1554226Y714248D01*
X1152398Y880618D02*
X1157478Y885698D01*
X1162558Y880618D01*
X1157478Y875538D01*
X1152398Y880618D01*
X1490726Y748030D02*
X1495806Y753110D01*
X1500886Y748030D01*
X1495806Y742950D01*
X1490726Y748030D01*
X1218438Y776732D02*
X1223518Y781812D01*
X1228598Y776732D01*
X1223518Y771652D01*
X1218438Y776732D01*
X1668272Y742442D02*
X1673352Y747522D01*
X1678432Y742442D01*
X1673352Y737362D01*
X1668272Y742442D01*
X1416558Y783082D02*
X1421638Y788162D01*
X1426718Y783082D01*
X1421638Y778002D01*
X1416558Y783082D01*
X1678686Y772160D02*
X1683766Y777240D01*
X1688846Y772160D01*
X1683766Y767080D01*
X1678686Y772160D01*
X1183894Y1189990D02*
X1188974Y1195070D01*
X1194054Y1189990D01*
X1188974Y1184910D01*
X1183894Y1189990D01*
X1236840Y1020826D02*
X1241920Y1025906D01*
X1247000Y1020826D01*
X1241920Y1015746D01*
X1236840Y1020826D01*
X1599946Y629920D02*
X1605026Y635000D01*
X1610106Y629920D01*
X1605026Y624840D01*
X1599946Y629920D01*
X352044Y690880D02*
X357124Y695960D01*
X362204Y690880D01*
X357124Y685800D01*
X352044Y690880D01*
X1463294Y632460D02*
X1468374Y637540D01*
X1473454Y632460D01*
X1468374Y627380D01*
X1463294Y632460D01*
X1670190Y526542D02*
X1675270Y531622D01*
X1680350Y526542D01*
X1675270Y521462D01*
X1670190Y526542D01*
X1545590Y537464D02*
X1550670Y542544D01*
X1555750Y537464D01*
X1550670Y532384D01*
X1545590Y537464D01*
X355600Y496316D02*
X360680Y501396D01*
X365760Y496316D01*
X360680Y491236D01*
X355600Y496316D01*
X1567180Y527304D02*
X1572260Y532384D01*
X1577340Y527304D01*
X1572260Y522224D01*
X1567180Y527304D01*
X1462024Y1050290D02*
X1467104Y1055370D01*
X1472184Y1050290D01*
X1467104Y1045210D01*
X1462024Y1050290D01*
X1595120D02*
X1600200Y1055370D01*
X1605280Y1050290D01*
X1600200Y1045210D01*
X1595120Y1050290D01*
X1655318Y514096D02*
X1660398Y519176D01*
X1665478Y514096D01*
X1660398Y509016D01*
X1655318Y514096D01*
X436788Y459070D02*
X441868Y464150D01*
X446948Y459070D01*
X441868Y453990D01*
X436788Y459070D01*
X483616Y325882D02*
X488696Y330962D01*
X493776Y325882D01*
X488696Y320802D01*
X483616Y325882D01*
X1655318Y497078D02*
X1660398Y502158D01*
X1665478Y497078D01*
X1660398Y491998D01*
X1655318Y497078D01*
D94*
X606070Y637540D02*
G03*
X606070Y637540I-5080J0D01*
G01*
Y662940D02*
G03*
X606070Y662940I-5080J0D01*
G01*
Y688340D02*
G03*
X606070Y688340I-5080J0D01*
G01*
Y713740D02*
G03*
X606070Y713740I-5080J0D01*
G01*
X1449070Y510540D02*
G03*
X1449070Y510540I-5080J0D01*
G01*
Y535940D02*
G03*
X1449070Y535940I-5080J0D01*
G01*
Y561340D02*
G03*
X1449070Y561340I-5080J0D01*
G01*
Y586740D02*
G03*
X1449070Y586740I-5080J0D01*
G01*
Y612140D02*
G03*
X1449070Y612140I-5080J0D01*
G01*
Y637540D02*
G03*
X1449070Y637540I-5080J0D01*
G01*
Y662940D02*
G03*
X1449070Y662940I-5080J0D01*
G01*
Y688340D02*
G03*
X1449070Y688340I-5080J0D01*
G01*
Y713740D02*
G03*
X1449070Y713740I-5080J0D01*
G01*
Y739140D02*
G03*
X1449070Y739140I-5080J0D01*
G01*
Y764540D02*
G03*
X1449070Y764540I-5080J0D01*
G01*
Y789940D02*
G03*
X1449070Y789940I-5080J0D01*
G01*
Y815340D02*
G03*
X1449070Y815340I-5080J0D01*
G01*
Y840740D02*
G03*
X1449070Y840740I-5080J0D01*
G01*
M02*
