G04*
G04 #@! TF.GenerationSoftware,Altium Limited,Altium Designer,25.6.2 (33)*
G04*
G04 Layer_Color=65535*
%FSLAX44Y44*%
%MOMM*%
G71*
G04*
G04 #@! TF.SameCoordinates,8FAB441B-F1FE-446A-B751-D3DFCEB5FBC4*
G04*
G04*
G04 #@! TF.FilePolarity,Positive*
G04*
G01*
G75*
%ADD10C,0.2000*%
%ADD11C,0.2500*%
%ADD12C,0.1524*%
%ADD13C,0.0000*%
%ADD14C,0.1000*%
%ADD15C,0.1270*%
%ADD16C,0.2032*%
%ADD17C,0.2644*%
%ADD18C,0.2540*%
D10*
X865870Y1038810D02*
G03*
X865870Y1038810I-1000J0D01*
G01*
X643440Y1017270D02*
G03*
X643440Y1017270I-1000J0D01*
G01*
X976360Y1144480D02*
G03*
X976360Y1144480I-1000J0D01*
G01*
X949690Y1143210D02*
G03*
X949690Y1143210I-1000J0D01*
G01*
X387426Y1066844D02*
G03*
X387426Y1066844I-1000J0D01*
G01*
X1581200Y958220D02*
G03*
X1581200Y958220I-1000J0D01*
G01*
X1299130Y1020530D02*
G03*
X1299130Y1020530I-1000J0D01*
G01*
X477596Y449370D02*
G03*
X477596Y449370I-1000J0D01*
G01*
X403936D02*
G03*
X403936Y449370I-1000J0D01*
G01*
X330276D02*
G03*
X330276Y449370I-1000J0D01*
G01*
X420446Y302050D02*
G03*
X420446Y302050I-1000J0D01*
G01*
X346786D02*
G03*
X346786Y302050I-1000J0D01*
G01*
X730130Y1124860D02*
Y1206860D01*
X836130D01*
Y1124860D02*
Y1206860D01*
X730130Y1124860D02*
X836130D01*
X943600Y1122060D02*
X958850D01*
X969360Y1162480D02*
Y1166480D01*
X981360Y1162480D02*
Y1166480D01*
X942690Y1161210D02*
Y1165210D01*
X954690Y1161210D02*
Y1165210D01*
X436810Y883240D02*
X511810D01*
X436810Y798240D02*
X511810D01*
X521810Y808240D01*
X511810Y883240D02*
X521810Y873240D01*
Y853740D02*
Y873240D01*
Y808240D02*
Y827740D01*
X436810Y852490D02*
Y883240D01*
Y798240D02*
Y828990D01*
X380426Y1084844D02*
Y1088844D01*
X392426Y1084844D02*
Y1088844D01*
X422272Y1070360D02*
Y1100360D01*
Y1070360D02*
X429272D01*
Y1100360D01*
X422272D02*
X429272D01*
X570990Y400440D02*
Y950840D01*
X1463990D01*
Y400440D02*
Y950840D01*
X570990Y400440D02*
X1463990D01*
X1526120Y859760D02*
X1707120D01*
Y544760D02*
Y548010D01*
Y793110D02*
Y859760D01*
X1526120Y544760D02*
X1707120D01*
X1526120D02*
Y548010D01*
Y793110D02*
Y859760D01*
X1198470Y1061250D02*
Y1070750D01*
X1181470Y1049750D02*
X1226470D01*
X1181470Y1061250D02*
X1198470D01*
X1181470Y1049750D02*
Y1061250D01*
X1259470Y1068250D02*
Y1154250D01*
X1181470Y1161250D02*
X1198470D01*
X1181470D02*
Y1172750D01*
X1226470D01*
X1198470Y1151750D02*
Y1161250D01*
X1008530Y997850D02*
Y1005100D01*
X1002030D02*
X1008530D01*
Y976100D02*
Y983350D01*
X1002030Y976100D02*
X1008530D01*
D11*
X762380Y1213360D02*
G03*
X762380Y1213360I-1250J0D01*
G01*
X423560Y840740D02*
G03*
X423560Y840740I-1250J0D01*
G01*
X403522Y1094860D02*
G03*
X403522Y1094860I-1250J0D01*
G01*
X1516870Y784860D02*
G03*
X1516870Y784860I-1250J0D01*
G01*
X1188720Y1068250D02*
G03*
X1188720Y1068250I-1250J0D01*
G01*
D12*
X437885Y1198881D02*
G03*
X441198Y1201917I266J3036D01*
G01*
X436626Y1201928D02*
X441198D01*
X445262D01*
Y1171956D02*
Y1180846D01*
X436626Y1171956D02*
X445262D01*
Y1193038D02*
Y1201928D01*
X385572Y989584D02*
Y997204D01*
X318008D02*
X385572D01*
Y905256D02*
Y912876D01*
X318008Y905256D02*
X385572D01*
X318008D02*
Y997204D01*
D13*
X464757Y765645D02*
G03*
X464757Y765645I-2540J0D01*
G01*
D14*
X565990Y637540D02*
G03*
X564990Y637540I-500J0D01*
G01*
D02*
G03*
X565990Y637540I500J0D01*
G01*
D15*
X855370Y1056360D02*
X855820D01*
X873920D02*
X874370D01*
X855370Y1084860D02*
X855820D01*
X873920D02*
X874370D01*
Y1056360D02*
Y1084860D01*
X855370Y1056360D02*
Y1084860D01*
X679630Y1092940D02*
X765630D01*
X679630Y994940D02*
X765630D01*
Y1089140D02*
Y1092940D01*
Y1019140D02*
Y1068740D01*
Y994940D02*
Y998740D01*
X679630Y1080540D02*
Y1092940D01*
Y994940D02*
Y1007340D01*
X1625200Y980420D02*
Y1016020D01*
X1575200Y980420D02*
Y1016020D01*
X497196Y527070D02*
X507196D01*
Y466070D02*
Y527070D01*
X497196Y466070D02*
X507196D01*
X470196Y527070D02*
X480196D01*
X470196Y466070D02*
Y527070D01*
Y466070D02*
X480196D01*
X423536Y527070D02*
X433536D01*
Y466070D02*
Y527070D01*
X423536Y466070D02*
X433536D01*
X396536Y527070D02*
X406536D01*
X396536Y466070D02*
Y527070D01*
Y466070D02*
X406536D01*
X349876Y527070D02*
X359876D01*
Y466070D02*
Y527070D01*
X349876Y466070D02*
X359876D01*
X322876Y527070D02*
X332876D01*
X322876Y466070D02*
Y527070D01*
Y466070D02*
X332876D01*
X440046Y379750D02*
X450046D01*
Y318750D02*
Y379750D01*
X440046Y318750D02*
X450046D01*
X413046Y379750D02*
X423046D01*
X413046Y318750D02*
Y379750D01*
Y318750D02*
X423046D01*
X366386Y379750D02*
X376386D01*
Y318750D02*
Y379750D01*
X366386Y318750D02*
X376386D01*
X339386Y379750D02*
X349386D01*
X339386Y318750D02*
Y379750D01*
Y318750D02*
X349386D01*
D16*
X355260Y670800D02*
Y735800D01*
Y635800D02*
X355270Y613300D01*
X503250Y613173D01*
X503260Y630800D01*
Y670800D02*
Y735800D01*
X464260Y758300D02*
X486640D01*
D17*
X393866Y999998D02*
X385402Y991534D01*
Y999998D02*
X393866Y991534D01*
X389634Y999998D02*
Y991534D01*
X385402Y995766D02*
X393866D01*
D18*
X855218Y1118103D02*
Y1102868D01*
X862835D01*
X865375Y1105407D01*
Y1115564D01*
X862835Y1118103D01*
X855218D01*
X870453Y1102868D02*
X875531D01*
X872992D01*
Y1118103D01*
X870453Y1115564D01*
X1515618Y884677D02*
Y871981D01*
X1518157Y869442D01*
X1523235D01*
X1525775Y871981D01*
Y884677D01*
X1541010D02*
X1535931Y882138D01*
X1530853Y877059D01*
Y871981D01*
X1533392Y869442D01*
X1538471D01*
X1541010Y871981D01*
Y874520D01*
X1538471Y877059D01*
X1530853D01*
X1298702Y1049015D02*
Y1036319D01*
X1301241Y1033780D01*
X1306319D01*
X1308859Y1036319D01*
Y1049015D01*
X1324094D02*
X1313937D01*
Y1041397D01*
X1319015Y1043937D01*
X1321555D01*
X1324094Y1041397D01*
Y1036319D01*
X1321555Y1033780D01*
X1316476D01*
X1313937Y1036319D01*
X1575054Y1057905D02*
Y1045209D01*
X1577593Y1042670D01*
X1582672D01*
X1585211Y1045209D01*
Y1057905D01*
X1597907Y1042670D02*
Y1057905D01*
X1590289Y1050287D01*
X1600446D01*
X402277Y1125106D02*
Y1112410D01*
X404816Y1109871D01*
X409894D01*
X412434Y1112410D01*
Y1125106D01*
X417512Y1122567D02*
X420051Y1125106D01*
X425130D01*
X427669Y1122567D01*
Y1120028D01*
X425130Y1117488D01*
X422590D01*
X425130D01*
X427669Y1114949D01*
Y1112410D01*
X425130Y1109871D01*
X420051D01*
X417512Y1112410D01*
X422910Y1225545D02*
Y1212849D01*
X425449Y1210310D01*
X430527D01*
X433067Y1212849D01*
Y1225545D01*
X448302Y1210310D02*
X438145D01*
X448302Y1220467D01*
Y1223006D01*
X445763Y1225545D01*
X440684D01*
X438145Y1223006D01*
X393446Y1178047D02*
Y1165351D01*
X395985Y1162812D01*
X401063D01*
X403603Y1165351D01*
Y1178047D01*
X408681Y1162812D02*
X413759D01*
X411220D01*
Y1178047D01*
X408681Y1175508D01*
X332737Y565146D02*
X330197Y567685D01*
X325119D01*
X322580Y565146D01*
Y562607D01*
X325119Y560067D01*
X330197D01*
X332737Y557528D01*
Y554989D01*
X330197Y552450D01*
X325119D01*
X322580Y554989D01*
X337815Y567685D02*
Y552450D01*
X342893Y557528D01*
X347972Y552450D01*
Y567685D01*
X353050Y549911D02*
X363207D01*
X378442Y567685D02*
X373364Y565146D01*
X368285Y560067D01*
Y554989D01*
X370824Y552450D01*
X375903D01*
X378442Y554989D01*
Y557528D01*
X375903Y560067D01*
X368285D01*
X406397Y565146D02*
X403857Y567685D01*
X398779D01*
X396240Y565146D01*
Y562607D01*
X398779Y560067D01*
X403857D01*
X406397Y557528D01*
Y554989D01*
X403857Y552450D01*
X398779D01*
X396240Y554989D01*
X411475Y567685D02*
Y552450D01*
X416553Y557528D01*
X421632Y552450D01*
Y567685D01*
X426710Y549911D02*
X436867D01*
X452102Y567685D02*
X441945D01*
Y560067D01*
X447024Y562607D01*
X449563D01*
X452102Y560067D01*
Y554989D01*
X449563Y552450D01*
X444484D01*
X441945Y554989D01*
X480057Y565146D02*
X477518Y567685D01*
X472439D01*
X469900Y565146D01*
Y562607D01*
X472439Y560067D01*
X477518D01*
X480057Y557528D01*
Y554989D01*
X477518Y552450D01*
X472439D01*
X469900Y554989D01*
X485135Y567685D02*
Y552450D01*
X490213Y557528D01*
X495292Y552450D01*
Y567685D01*
X500370Y549911D02*
X510527D01*
X523223Y552450D02*
Y567685D01*
X515605Y560067D01*
X525762D01*
X349247Y417826D02*
X346707Y420365D01*
X341629D01*
X339090Y417826D01*
Y415287D01*
X341629Y412747D01*
X346707D01*
X349247Y410208D01*
Y407669D01*
X346707Y405130D01*
X341629D01*
X339090Y407669D01*
X354325Y420365D02*
Y405130D01*
X359403Y410208D01*
X364482Y405130D01*
Y420365D01*
X369560Y402591D02*
X379717D01*
X384795Y417826D02*
X387334Y420365D01*
X392413D01*
X394952Y417826D01*
Y415287D01*
X392413Y412747D01*
X389874D01*
X392413D01*
X394952Y410208D01*
Y407669D01*
X392413Y405130D01*
X387334D01*
X384795Y407669D01*
X422907Y417826D02*
X420368Y420365D01*
X415289D01*
X412750Y417826D01*
Y415287D01*
X415289Y412747D01*
X420368D01*
X422907Y410208D01*
Y407669D01*
X420368Y405130D01*
X415289D01*
X412750Y407669D01*
X427985Y420365D02*
Y405130D01*
X433063Y410208D01*
X438142Y405130D01*
Y420365D01*
X443220Y402591D02*
X453377D01*
X468612Y405130D02*
X458455D01*
X468612Y415287D01*
Y417826D01*
X466073Y420365D01*
X460994D01*
X458455Y417826D01*
X653031Y1118612D02*
X650491Y1121151D01*
X645413D01*
X642874Y1118612D01*
Y1116073D01*
X645413Y1113533D01*
X650491D01*
X653031Y1110994D01*
Y1108455D01*
X650491Y1105916D01*
X645413D01*
X642874Y1108455D01*
X658109Y1121151D02*
Y1105916D01*
X663187Y1110994D01*
X668266Y1105916D01*
Y1121151D01*
X673344Y1103377D02*
X683501D01*
X688579Y1105916D02*
X693658D01*
X691118D01*
Y1121151D01*
X688579Y1118612D01*
X347977Y795524D02*
X345438Y798063D01*
X340359D01*
X337820Y795524D01*
Y792985D01*
X340359Y790445D01*
X345438D01*
X347977Y787906D01*
Y785367D01*
X345438Y782828D01*
X340359D01*
X337820Y785367D01*
X353055Y798063D02*
Y782828D01*
X360673D01*
X363212Y785367D01*
Y795524D01*
X360673Y798063D01*
X353055D01*
X368290Y782828D02*
X373368D01*
X370829D01*
Y798063D01*
X368290Y795524D01*
X994410Y1194562D02*
Y1209797D01*
X1002028D01*
X1004567Y1207258D01*
Y1202179D01*
X1002028Y1199640D01*
X994410D01*
X999488D02*
X1004567Y1194562D01*
X1009645Y1189484D02*
Y1204719D01*
X1017263D01*
X1019802Y1202179D01*
Y1197101D01*
X1017263Y1194562D01*
X1009645D01*
X1024880Y1204719D02*
Y1194562D01*
Y1199640D01*
X1027419Y1202179D01*
X1029958Y1204719D01*
X1032498D01*
X1042654Y1194562D02*
X1047733D01*
X1050272Y1197101D01*
Y1202179D01*
X1047733Y1204719D01*
X1042654D01*
X1040115Y1202179D01*
Y1197101D01*
X1042654Y1194562D01*
X1060429Y1189484D02*
X1062968D01*
X1065507Y1192023D01*
Y1204719D01*
X1057889D01*
X1055350Y1202179D01*
Y1197101D01*
X1057889Y1194562D01*
X1065507D01*
X1070585D02*
X1075664D01*
X1073124D01*
Y1209797D01*
X1070585Y1207258D01*
X1278128Y1182370D02*
Y1197605D01*
X1285746D01*
X1288285Y1195066D01*
Y1189987D01*
X1285746Y1187448D01*
X1278128D01*
X1283206D02*
X1288285Y1182370D01*
X1303520D02*
X1293363D01*
X1303520Y1192527D01*
Y1195066D01*
X1300981Y1197605D01*
X1295902D01*
X1293363Y1195066D01*
X1308598D02*
X1311137Y1197605D01*
X1316216D01*
X1318755Y1195066D01*
Y1184909D01*
X1316216Y1182370D01*
X1311137D01*
X1308598Y1184909D01*
Y1195066D01*
X1331468Y1123950D02*
Y1139185D01*
X1339086D01*
X1341625Y1136646D01*
Y1131568D01*
X1339086Y1129028D01*
X1331468D01*
X1336546D02*
X1341625Y1123950D01*
X1346703D02*
X1351781D01*
X1349242D01*
Y1139185D01*
X1346703Y1136646D01*
X1359399Y1126489D02*
X1361938Y1123950D01*
X1367016D01*
X1369556Y1126489D01*
Y1136646D01*
X1367016Y1139185D01*
X1361938D01*
X1359399Y1136646D01*
Y1134107D01*
X1361938Y1131568D01*
X1369556D01*
X1669288Y521970D02*
Y537205D01*
X1676906D01*
X1679445Y534666D01*
Y529588D01*
X1676906Y527048D01*
X1669288D01*
X1674366D02*
X1679445Y521970D01*
X1684523D02*
X1689601D01*
X1687062D01*
Y537205D01*
X1684523Y534666D01*
X1697219D02*
X1699758Y537205D01*
X1704836D01*
X1707376Y534666D01*
Y532127D01*
X1704836Y529588D01*
X1707376Y527048D01*
Y524509D01*
X1704836Y521970D01*
X1699758D01*
X1697219Y524509D01*
Y527048D01*
X1699758Y529588D01*
X1697219Y532127D01*
Y534666D01*
X1699758Y529588D02*
X1704836D01*
X1622044Y520700D02*
Y535935D01*
X1629662D01*
X1632201Y533396D01*
Y528317D01*
X1629662Y525778D01*
X1622044D01*
X1627122D02*
X1632201Y520700D01*
X1637279D02*
X1642357D01*
X1639818D01*
Y535935D01*
X1637279Y533396D01*
X1649975Y535935D02*
X1660132D01*
Y533396D01*
X1649975Y523239D01*
Y520700D01*
X1566164D02*
Y535935D01*
X1573781D01*
X1576321Y533396D01*
Y528317D01*
X1573781Y525778D01*
X1566164D01*
X1571242D02*
X1576321Y520700D01*
X1581399D02*
X1586477D01*
X1583938D01*
Y535935D01*
X1581399Y533396D01*
X1604252Y535935D02*
X1599173Y533396D01*
X1594095Y528317D01*
Y523239D01*
X1596634Y520700D01*
X1601712D01*
X1604252Y523239D01*
Y525778D01*
X1601712Y528317D01*
X1594095D01*
X1096518Y1018540D02*
Y1033775D01*
X1104136D01*
X1106675Y1031236D01*
Y1026158D01*
X1104136Y1023618D01*
X1096518D01*
X1101596D02*
X1106675Y1018540D01*
X1111753D02*
X1116831D01*
X1114292D01*
Y1033775D01*
X1111753Y1031236D01*
X1134606Y1033775D02*
X1124449D01*
Y1026158D01*
X1129527Y1028697D01*
X1132066D01*
X1134606Y1026158D01*
Y1021079D01*
X1132066Y1018540D01*
X1126988D01*
X1124449Y1021079D01*
X923798Y1018540D02*
Y1033775D01*
X931415D01*
X933955Y1031236D01*
Y1026158D01*
X931415Y1023618D01*
X923798D01*
X928876D02*
X933955Y1018540D01*
X939033D02*
X944111D01*
X941572D01*
Y1033775D01*
X939033Y1031236D01*
X959346Y1018540D02*
Y1033775D01*
X951729Y1026158D01*
X961886D01*
X1040638Y1018540D02*
Y1033775D01*
X1048255D01*
X1050795Y1031236D01*
Y1026158D01*
X1048255Y1023618D01*
X1040638D01*
X1045716D02*
X1050795Y1018540D01*
X1055873D02*
X1060951D01*
X1058412D01*
Y1033775D01*
X1055873Y1031236D01*
X1068569D02*
X1071108Y1033775D01*
X1076187D01*
X1078726Y1031236D01*
Y1028697D01*
X1076187Y1026158D01*
X1073647D01*
X1076187D01*
X1078726Y1023618D01*
Y1021079D01*
X1076187Y1018540D01*
X1071108D01*
X1068569Y1021079D01*
X1414018Y1183640D02*
Y1198875D01*
X1421635D01*
X1424175Y1196336D01*
Y1191257D01*
X1421635Y1188718D01*
X1414018D01*
X1419096D02*
X1424175Y1183640D01*
X1429253D02*
X1434331D01*
X1431792D01*
Y1198875D01*
X1429253Y1196336D01*
X1452106Y1183640D02*
X1441949D01*
X1452106Y1193797D01*
Y1196336D01*
X1449566Y1198875D01*
X1444488D01*
X1441949Y1196336D01*
X1363218Y1183640D02*
Y1198875D01*
X1370836D01*
X1373375Y1196336D01*
Y1191257D01*
X1370836Y1188718D01*
X1363218D01*
X1368296D02*
X1373375Y1183640D01*
X1378453D02*
X1383531D01*
X1380992D01*
Y1198875D01*
X1378453Y1196336D01*
X1391149Y1183640D02*
X1396227D01*
X1393688D01*
Y1198875D01*
X1391149Y1196336D01*
X1521968Y474980D02*
Y490215D01*
X1529586D01*
X1532125Y487676D01*
Y482598D01*
X1529586Y480058D01*
X1521968D01*
X1527046D02*
X1532125Y474980D01*
X1537203D02*
X1542281D01*
X1539742D01*
Y490215D01*
X1537203Y487676D01*
X1549899D02*
X1552438Y490215D01*
X1557516D01*
X1560056Y487676D01*
Y477519D01*
X1557516Y474980D01*
X1552438D01*
X1549899Y477519D01*
Y487676D01*
X1566418Y476250D02*
Y491485D01*
X1574035D01*
X1576575Y488946D01*
Y483867D01*
X1574035Y481328D01*
X1566418D01*
X1571496D02*
X1576575Y476250D01*
X1581653Y478789D02*
X1584192Y476250D01*
X1589271D01*
X1591810Y478789D01*
Y488946D01*
X1589271Y491485D01*
X1584192D01*
X1581653Y488946D01*
Y486407D01*
X1584192Y483867D01*
X1591810D01*
X1397508Y1033780D02*
Y1049015D01*
X1405125D01*
X1407665Y1046476D01*
Y1041397D01*
X1405125Y1038858D01*
X1397508D01*
X1402586D02*
X1407665Y1033780D01*
X1412743Y1046476D02*
X1415282Y1049015D01*
X1420361D01*
X1422900Y1046476D01*
Y1043937D01*
X1420361Y1041397D01*
X1422900Y1038858D01*
Y1036319D01*
X1420361Y1033780D01*
X1415282D01*
X1412743Y1036319D01*
Y1038858D01*
X1415282Y1041397D01*
X1412743Y1043937D01*
Y1046476D01*
X1415282Y1041397D02*
X1420361D01*
X1393698Y1088390D02*
Y1103625D01*
X1401315D01*
X1403855Y1101086D01*
Y1096008D01*
X1401315Y1093468D01*
X1393698D01*
X1398776D02*
X1403855Y1088390D01*
X1408933Y1103625D02*
X1419090D01*
Y1101086D01*
X1408933Y1090929D01*
Y1088390D01*
X594868Y1126490D02*
Y1141725D01*
X602486D01*
X605025Y1139186D01*
Y1134108D01*
X602486Y1131568D01*
X594868D01*
X599946D02*
X605025Y1126490D01*
X620260Y1141725D02*
X615181Y1139186D01*
X610103Y1134108D01*
Y1129029D01*
X612642Y1126490D01*
X617721D01*
X620260Y1129029D01*
Y1131568D01*
X617721Y1134108D01*
X610103D01*
X1171448Y1013460D02*
Y1028695D01*
X1179065D01*
X1181605Y1026156D01*
Y1021077D01*
X1179065Y1018538D01*
X1171448D01*
X1176526D02*
X1181605Y1013460D01*
X1196840Y1028695D02*
X1186683D01*
Y1021077D01*
X1191761Y1023617D01*
X1194301D01*
X1196840Y1021077D01*
Y1015999D01*
X1194301Y1013460D01*
X1189222D01*
X1186683Y1015999D01*
X1218438Y1013460D02*
Y1028695D01*
X1226056D01*
X1228595Y1026156D01*
Y1021077D01*
X1226056Y1018538D01*
X1218438D01*
X1223516D02*
X1228595Y1013460D01*
X1241291D02*
Y1028695D01*
X1233673Y1021077D01*
X1243830D01*
X1030478Y1130300D02*
Y1145535D01*
X1038095D01*
X1040635Y1142996D01*
Y1137917D01*
X1038095Y1135378D01*
X1030478D01*
X1035556D02*
X1040635Y1130300D01*
X1045713Y1142996D02*
X1048252Y1145535D01*
X1053331D01*
X1055870Y1142996D01*
Y1140457D01*
X1053331Y1137917D01*
X1050791D01*
X1053331D01*
X1055870Y1135378D01*
Y1132839D01*
X1053331Y1130300D01*
X1048252D01*
X1045713Y1132839D01*
X1030478Y1106170D02*
Y1121405D01*
X1038095D01*
X1040635Y1118866D01*
Y1113788D01*
X1038095Y1111248D01*
X1030478D01*
X1035556D02*
X1040635Y1106170D01*
X1055870D02*
X1045713D01*
X1055870Y1116327D01*
Y1118866D01*
X1053331Y1121405D01*
X1048252D01*
X1045713Y1118866D01*
X451763Y1112001D02*
Y1127236D01*
X459380D01*
X461920Y1124697D01*
Y1119619D01*
X459380Y1117079D01*
X451763D01*
X456841D02*
X461920Y1112001D01*
X466998D02*
X472076D01*
X469537D01*
Y1127236D01*
X466998Y1124697D01*
X990343Y1021333D02*
Y1031490D01*
X987803Y1034029D01*
X982725D01*
X980186Y1031490D01*
Y1021333D01*
X982725Y1018794D01*
X987803D01*
X985264Y1023872D02*
X990343Y1018794D01*
X987803D02*
X990343Y1021333D01*
X995421Y1018794D02*
X1000499D01*
X997960D01*
Y1034029D01*
X995421Y1031490D01*
X378679Y1114149D02*
Y1129384D01*
X386297D01*
X388836Y1126845D01*
Y1121767D01*
X386297Y1119227D01*
X378679D01*
X393914Y1129384D02*
Y1114149D01*
X401532D01*
X404071Y1116688D01*
Y1126845D01*
X401532Y1129384D01*
X393914D01*
X409149Y1114149D02*
Y1129384D01*
X414227Y1124306D01*
X419306Y1129384D01*
Y1114149D01*
X424384Y1111610D02*
X434541D01*
X439619Y1129384D02*
Y1114149D01*
X449776D01*
X465011Y1129384D02*
X454854D01*
Y1114149D01*
X465011D01*
X454854Y1121767D02*
X459933D01*
X470089Y1129384D02*
Y1114149D01*
X477707D01*
X480246Y1116688D01*
Y1126845D01*
X477707Y1129384D01*
X470089D01*
X967740Y1204463D02*
Y1189228D01*
X977897D01*
X990593D02*
X985514D01*
X982975Y1191767D01*
Y1196845D01*
X985514Y1199385D01*
X990593D01*
X993132Y1196845D01*
Y1194306D01*
X982975D01*
X1008367Y1204463D02*
Y1189228D01*
X1000749D01*
X998210Y1191767D01*
Y1196845D01*
X1000749Y1199385D01*
X1008367D01*
X1013445Y1201924D02*
X1015984Y1204463D01*
X1021063D01*
X1023602Y1201924D01*
Y1199385D01*
X1021063Y1196845D01*
X1018524D01*
X1021063D01*
X1023602Y1194306D01*
Y1191767D01*
X1021063Y1189228D01*
X1015984D01*
X1013445Y1191767D01*
X941070Y1203193D02*
Y1187958D01*
X951227D01*
X963923D02*
X958844D01*
X956305Y1190497D01*
Y1195575D01*
X958844Y1198115D01*
X963923D01*
X966462Y1195575D01*
Y1193036D01*
X956305D01*
X981697Y1203193D02*
Y1187958D01*
X974079D01*
X971540Y1190497D01*
Y1195575D01*
X974079Y1198115D01*
X981697D01*
X996932Y1187958D02*
X986775D01*
X996932Y1198115D01*
Y1200654D01*
X994393Y1203193D01*
X989314D01*
X986775Y1200654D01*
X1181859Y1197859D02*
X1176780D01*
X1179320D01*
Y1185163D01*
X1176780Y1182624D01*
X1174241D01*
X1171702Y1185163D01*
X1194555Y1182624D02*
Y1197859D01*
X1186937Y1190241D01*
X1197094D01*
X573275Y984245D02*
X568196D01*
X570736D01*
Y971549D01*
X568196Y969010D01*
X565657D01*
X563118Y971549D01*
X578353Y981706D02*
X580892Y984245D01*
X585971D01*
X588510Y981706D01*
Y979167D01*
X585971Y976628D01*
X583431D01*
X585971D01*
X588510Y974088D01*
Y971549D01*
X585971Y969010D01*
X580892D01*
X578353Y971549D01*
X741677Y1238753D02*
X736598D01*
X739137D01*
Y1226057D01*
X736598Y1223518D01*
X734059D01*
X731520Y1226057D01*
X756912Y1223518D02*
X746755D01*
X756912Y1233675D01*
Y1236214D01*
X754373Y1238753D01*
X749294D01*
X746755Y1236214D01*
X329943Y1036315D02*
X324864D01*
X327403D01*
Y1023619D01*
X324864Y1021080D01*
X322325D01*
X319786Y1023619D01*
X335021Y1021080D02*
X340099D01*
X337560D01*
Y1036315D01*
X335021Y1033776D01*
X943356Y1147059D02*
X948434D01*
X945895D01*
Y1131824D01*
X943356D01*
X948434D01*
X966209Y1144520D02*
X963669Y1147059D01*
X958591D01*
X956052Y1144520D01*
Y1134363D01*
X958591Y1131824D01*
X963669D01*
X966209Y1134363D01*
X971287Y1131824D02*
X976365D01*
X973826D01*
Y1147059D01*
X971287Y1144520D01*
X479295Y1066288D02*
X476755Y1068827D01*
X471677D01*
X469138Y1066288D01*
Y1056131D01*
X471677Y1053592D01*
X476755D01*
X479295Y1056131D01*
X484373Y1053592D02*
X489451D01*
X486912D01*
Y1068827D01*
X484373Y1066288D01*
X497069Y1053592D02*
X502147D01*
X499608D01*
Y1068827D01*
X497069Y1066288D01*
X1530855Y531618D02*
X1528315Y534157D01*
X1523237D01*
X1520698Y531618D01*
Y521461D01*
X1523237Y518922D01*
X1528315D01*
X1530855Y521461D01*
X1535933Y518922D02*
X1541011D01*
X1538472D01*
Y534157D01*
X1535933Y531618D01*
X1548629D02*
X1551168Y534157D01*
X1556246D01*
X1558786Y531618D01*
Y521461D01*
X1556246Y518922D01*
X1551168D01*
X1548629Y521461D01*
Y531618D01*
X1677921Y485898D02*
X1675381Y488437D01*
X1670303D01*
X1667764Y485898D01*
Y475741D01*
X1670303Y473202D01*
X1675381D01*
X1677921Y475741D01*
X1682999D02*
X1685538Y473202D01*
X1690617D01*
X1693156Y475741D01*
Y485898D01*
X1690617Y488437D01*
X1685538D01*
X1682999Y485898D01*
Y483359D01*
X1685538Y480820D01*
X1693156D01*
X1630931Y485898D02*
X1628392Y488437D01*
X1623313D01*
X1620774Y485898D01*
Y475741D01*
X1623313Y473202D01*
X1628392D01*
X1630931Y475741D01*
X1636009Y485898D02*
X1638548Y488437D01*
X1643627D01*
X1646166Y485898D01*
Y483359D01*
X1643627Y480820D01*
X1646166Y478280D01*
Y475741D01*
X1643627Y473202D01*
X1638548D01*
X1636009Y475741D01*
Y478280D01*
X1638548Y480820D01*
X1636009Y483359D01*
Y485898D01*
X1638548Y480820D02*
X1643627D01*
X1360675Y1047238D02*
X1358136Y1049777D01*
X1353057D01*
X1350518Y1047238D01*
Y1037081D01*
X1353057Y1034542D01*
X1358136D01*
X1360675Y1037081D01*
X1365753Y1049777D02*
X1375910D01*
Y1047238D01*
X1365753Y1037081D01*
Y1034542D01*
X1542285Y1101848D02*
X1539745Y1104387D01*
X1534667D01*
X1532128Y1101848D01*
Y1091691D01*
X1534667Y1089152D01*
X1539745D01*
X1542285Y1091691D01*
X1557520Y1104387D02*
X1552441Y1101848D01*
X1547363Y1096769D01*
Y1091691D01*
X1549902Y1089152D01*
X1554981D01*
X1557520Y1091691D01*
Y1094230D01*
X1554981Y1096769D01*
X1547363D01*
X1043175Y1095498D02*
X1040636Y1098037D01*
X1035557D01*
X1033018Y1095498D01*
Y1085341D01*
X1035557Y1082802D01*
X1040636D01*
X1043175Y1085341D01*
X1058410Y1098037D02*
X1048253D01*
Y1090419D01*
X1053331Y1092959D01*
X1055871D01*
X1058410Y1090419D01*
Y1085341D01*
X1055871Y1082802D01*
X1050792D01*
X1048253Y1085341D01*
X534144Y1124439D02*
X531604Y1126978D01*
X526526D01*
X523987Y1124439D01*
Y1114282D01*
X526526Y1111743D01*
X531604D01*
X534144Y1114282D01*
X546839Y1111743D02*
Y1126978D01*
X539222Y1119361D01*
X549379D01*
X432559Y907030D02*
X430019Y909569D01*
X424941D01*
X422402Y907030D01*
Y896873D01*
X424941Y894334D01*
X430019D01*
X432559Y896873D01*
X437637Y907030D02*
X440176Y909569D01*
X445255D01*
X447794Y907030D01*
Y904491D01*
X445255Y901952D01*
X442715D01*
X445255D01*
X447794Y899412D01*
Y896873D01*
X445255Y894334D01*
X440176D01*
X437637Y896873D01*
X498032Y1124439D02*
X495493Y1126978D01*
X490414D01*
X487875Y1124439D01*
Y1114282D01*
X490414Y1111743D01*
X495493D01*
X498032Y1114282D01*
X513267Y1111743D02*
X503110D01*
X513267Y1121900D01*
Y1124439D01*
X510728Y1126978D01*
X505649D01*
X503110Y1124439D01*
X439671Y1175254D02*
X437132Y1177793D01*
X432053D01*
X429514Y1175254D01*
Y1165097D01*
X432053Y1162558D01*
X437132D01*
X439671Y1165097D01*
X444749Y1162558D02*
X449827D01*
X447288D01*
Y1177793D01*
X444749Y1175254D01*
M02*
