G04*
G04 #@! TF.GenerationSoftware,Altium Limited,Altium Designer,25.6.2 (33)*
G04*
G04 Layer_Physical_Order=1*
G04 Layer_Color=255*
%FSLAX44Y44*%
%MOMM*%
G71*
G04*
G04 #@! TF.SameCoordinates,8FAB441B-F1FE-446A-B751-D3DFCEB5FBC4*
G04*
G04*
G04 #@! TF.FilePolarity,Positive*
G04*
G01*
G75*
%ADD18C,0.2540*%
%ADD33R,4.0000X1.6000*%
%ADD34R,1.0000X0.6600*%
%ADD43R,2.0000X0.9000*%
%ADD44R,5.0000X5.0000*%
G04:AMPARAMS|DCode=47|XSize=1.6571mm|YSize=0.6121mm|CornerRadius=0.3061mm|HoleSize=0mm|Usage=FLASHONLY|Rotation=0.000|XOffset=0mm|YOffset=0mm|HoleType=Round|Shape=RoundedRectangle|*
%AMROUNDEDRECTD47*
21,1,1.6571,0.0000,0,0,0.0*
21,1,1.0450,0.6121,0,0,0.0*
1,1,0.6121,0.5225,0.0000*
1,1,0.6121,-0.5225,0.0000*
1,1,0.6121,-0.5225,0.0000*
1,1,0.6121,0.5225,0.0000*
%
%ADD47ROUNDEDRECTD47*%
%ADD48R,1.6571X0.6121*%
%ADD49C,1.1500*%
%ADD50R,1.1500X1.1500*%
%ADD60R,1.1700X1.1800*%
%ADD61R,2.4000X1.4000*%
%ADD62R,2.8000X1.6000*%
%ADD63R,1.5250X0.7000*%
%ADD64R,2.5130X3.4020*%
%ADD65R,1.4500X1.1000*%
%ADD66R,1.1500X1.4500*%
%ADD67R,1.2000X1.4000*%
%ADD68R,1.4500X1.1500*%
%ADD69R,1.3208X0.5588*%
%ADD70O,1.8034X0.9906*%
%ADD71O,2.2098X0.9906*%
%ADD72R,1.0922X0.6096*%
%ADD73R,1.0922X0.3048*%
%ADD74R,0.7000X1.3000*%
%ADD75R,1.4478X1.6510*%
%ADD76R,1.4478X2.4384*%
%ADD77R,1.8542X1.6510*%
%ADD78R,3.3000X2.1000*%
%ADD79R,0.6000X1.3100*%
%ADD80R,1.1700X0.4000*%
%ADD81R,1.0000X1.1000*%
%ADD82R,3.4000X1.0000*%
%ADD83R,3.1000X1.4000*%
%ADD84C,2.1000*%
%ADD85R,1.6000X1.6000*%
%ADD86C,1.6000*%
%ADD87C,0.6096*%
%ADD88C,1.0000*%
%ADD89R,1.6650X1.6650*%
%ADD90C,1.6650*%
%ADD91C,3.8100*%
%ADD92C,1.2700*%
D18*
X465074Y840740D02*
Y891540D01*
X1437500Y1164336D02*
X1447800D01*
X416900Y1154090D02*
Y1193800D01*
X1013968Y1052068D02*
Y1076960D01*
X1644383Y494157D02*
X1645526Y495300D01*
X1641970Y491744D02*
X1644383Y494157D01*
X1589646Y480822D02*
Y494678D01*
X1354950Y1122058D02*
Y1136510D01*
Y1106170D02*
Y1122058D01*
X1301610Y1148080D02*
Y1164590D01*
Y1139444D02*
Y1148080D01*
X1063498Y1065530D02*
X1087848D01*
X1600200Y960882D02*
Y970720D01*
Y944880D02*
Y960882D01*
X1604264Y629158D02*
X1605026Y629920D01*
X1484199Y546531D02*
X1518158Y512572D01*
X960374Y1089660D02*
X961390D01*
X951230D02*
X960374D01*
X929780Y1021220D02*
Y1047210D01*
Y1000760D02*
Y1021220D01*
X545425Y1084921D02*
X547092Y1086588D01*
X537464Y1076960D02*
X545425Y1084921D01*
X510980Y1076960D02*
Y1085156D01*
X399400Y1128014D02*
Y1144894D01*
Y1118250D02*
Y1128014D01*
X389382Y1016254D02*
Y1077844D01*
X487680Y840740D02*
X510310D01*
X485394D02*
X487680D01*
X393192Y983234D02*
X441960D01*
X389763D02*
X393192D01*
X436880Y792226D02*
X461264Y816610D01*
X393192Y983234D02*
Y1012444D01*
X1526930Y485766D02*
Y492760D01*
X1031748Y1104646D02*
X1036320D01*
X1028954Y649732D02*
X1261364D01*
X1480312Y762000D02*
Y1058926D01*
X1594560Y1190498D02*
X1636268D01*
X1296048D02*
X1594560D01*
X1284110Y1171956D02*
Y1178560D01*
Y1164590D02*
Y1171956D01*
X1569466Y516610D02*
Y721360D01*
X1572146Y513929D02*
Y527190D01*
Y502920D02*
Y513929D01*
X1629283Y512699D02*
X1630680Y514096D01*
X1628026Y511442D02*
X1629283Y512699D01*
X1664208Y499110D02*
X1675270D01*
X410972Y1049528D02*
Y1075860D01*
X1327150Y977138D02*
Y1006960D01*
X966724Y1173480D02*
X975360D01*
X962660D02*
X966724D01*
X941070Y1076960D02*
X951230D01*
X917448D02*
X941070D01*
X532638Y1156716D02*
X714756D01*
X439318D02*
X532638D01*
X435762Y1153160D02*
Y1157224D01*
Y1145144D02*
Y1153160D01*
X414528Y1094860D02*
Y1099820D01*
X1005470Y1076960D02*
X1013968D01*
Y1052068D02*
X1036320D01*
X1039250Y1065530D01*
X418558Y757538D02*
Y772634D01*
X426720Y780796D01*
X486156D01*
X535940Y830580D01*
Y866140D01*
X492370Y909710D02*
X535940Y866140D01*
X492370Y909710D02*
Y1036320D01*
X1545310Y457200D02*
Y464820D01*
X1541869Y468261D02*
X1545310Y464820D01*
X1518158Y468261D02*
X1541869D01*
X1518158Y444500D02*
Y468261D01*
Y444500D02*
X1534160Y428498D01*
X1737360D01*
X1748028Y439166D01*
Y1142614D01*
X1715585Y1175057D02*
X1748028Y1142614D01*
X1686304Y1175057D02*
X1715585D01*
X1692770Y496684D02*
Y504190D01*
X1682996Y486910D02*
X1692770Y496684D01*
X1651629Y486910D02*
X1682996D01*
X1644383Y494157D02*
X1651629Y486910D01*
X1644383Y494157D02*
X1645526Y502920D01*
X1589646D02*
Y639326D01*
X1574546Y654425D02*
X1589646Y639326D01*
X1574546Y654425D02*
Y749046D01*
X1551432Y772160D02*
X1574546Y749046D01*
X1531620Y772160D02*
X1551432D01*
X1519936Y864616D02*
X1600200Y944880D01*
X1519936Y784860D02*
Y864616D01*
Y784860D02*
X1531620D01*
X1373750Y1017270D02*
Y1047614D01*
X1157698Y995680D02*
X1177430D01*
X1087848Y1065530D02*
X1157698Y995680D01*
X662630Y1069340D02*
Y1091128D01*
X561006Y1069340D02*
X662630D01*
X545425Y1084921D02*
X561006Y1069340D01*
X545425Y1084921D02*
X547092Y1094344D01*
X1005470Y1102360D02*
X1014730D01*
X1017270Y1104900D01*
Y1124458D01*
X1010920Y1130808D02*
X1017270Y1124458D01*
X984504Y1130808D02*
X1010920D01*
X974344Y1140968D02*
X984504Y1130808D01*
X1024128Y1069340D02*
X1036320Y1081532D01*
Y1088390D01*
X1369200Y1152144D02*
Y1165860D01*
Y1152144D02*
X1386440Y1134904D01*
Y954132D02*
Y1134904D01*
X1213358Y781050D02*
X1386440Y954132D01*
X1213358Y697738D02*
Y781050D01*
Y697738D02*
X1261364Y649732D01*
X1479804D01*
X1487932Y657860D01*
X1531620D01*
X1684782Y683260D02*
X1701620D01*
X1642110Y725932D02*
X1684782Y683260D01*
X1625346Y670560D02*
X1701620D01*
X1615186Y660400D02*
X1625346Y670560D01*
X1615186Y558546D02*
Y660400D01*
X1690632Y695960D02*
X1701620D01*
X1673606Y712986D02*
X1690632Y695960D01*
X1284110Y1178560D02*
X1296048Y1190498D01*
X1594560D02*
X1648153Y1136906D01*
X1683766Y759460D02*
X1701620D01*
X1681226Y762000D02*
X1683766Y759460D01*
X1636522Y762000D02*
X1681226D01*
X1622044Y776478D02*
X1636522Y762000D01*
X1346708Y957072D02*
X1346962Y956818D01*
X1346708Y957072D02*
Y1082294D01*
X1354074Y1089660D01*
X1337450Y1106170D02*
Y1121103D01*
X1399680Y1054862D02*
Y1070610D01*
X1393698Y1048880D02*
X1399680Y1054862D01*
X1393698Y839470D02*
Y1048880D01*
X1600200Y775970D02*
X1619250Y756920D01*
X1677162D01*
X1687322Y746760D01*
X1701620D01*
X1590200Y1018700D02*
Y1025720D01*
X1584960Y1013460D02*
X1590200Y1018700D01*
X1571498Y1013460D02*
X1584960D01*
X1548892Y1036066D02*
X1571498Y1013460D01*
X1417180Y1036066D02*
Y1070610D01*
X1701620Y632460D02*
X1723644D01*
X1731518Y640334D01*
Y941578D01*
X1078738Y1000760D02*
X1086358Y993140D01*
X1064120Y1000760D02*
X1078738D01*
X1517650Y746760D02*
X1531620D01*
X1512570Y741680D02*
X1517650Y746760D01*
X1512570Y705358D02*
Y741680D01*
X1590548Y659638D02*
X1594866Y655320D01*
Y547116D02*
Y655320D01*
Y547116D02*
X1629283Y512699D01*
X1628026Y502920D02*
X1629283Y512699D01*
X1687068Y594360D02*
X1701620D01*
X1626870Y654558D02*
X1687068Y594360D01*
X457200Y735584D02*
X517144Y675640D01*
X451988Y735584D02*
X457200D01*
X440558Y747014D02*
X451988Y735584D01*
X440558Y747014D02*
Y757538D01*
X1461770Y594360D02*
X1531620D01*
X1457198Y598932D02*
X1461770Y594360D01*
X703580Y598932D02*
X1457198D01*
X652272Y650240D02*
X703580Y598932D01*
X588772Y650240D02*
X652272D01*
X578612Y660400D02*
X588772Y650240D01*
X578612Y660400D02*
Y707644D01*
X518160Y768096D02*
X578612Y707644D01*
X433114Y768096D02*
X518160D01*
X429558Y757538D02*
X433114Y768096D01*
X385558Y757538D02*
Y767080D01*
X382764Y769874D02*
X385558Y767080D01*
X345440Y769874D02*
X382764D01*
X338074Y762508D02*
X345440Y769874D01*
X338074Y604266D02*
Y762508D01*
X1501083Y619760D02*
X1531620D01*
X410972Y1075860D02*
X412772D01*
X618490Y1043940D02*
X662630D01*
X431546Y311750D02*
Y356616D01*
X468122Y393192D01*
Y454914D01*
X623316Y610108D01*
X1092708Y663702D02*
Y768350D01*
X1286510Y962152D01*
Y998070D01*
X1295400Y1006960D01*
X1309560D01*
X339760Y311750D02*
X357886D01*
X326390Y325120D02*
X339760Y311750D01*
X326390Y325120D02*
Y809752D01*
X432308Y915670D01*
X1279144Y1025906D02*
X1319276D01*
Y1019960D02*
Y1025906D01*
Y1019960D02*
X1326960D01*
X1610200Y958502D02*
Y970720D01*
Y958502D02*
X1612646Y956056D01*
X1274572Y989330D02*
Y994563D01*
X1293469Y1013460D01*
X1309560D01*
X922620Y1095409D02*
X941070Y1076960D01*
X922620Y1095409D02*
Y1168633D01*
X927100Y1173112D01*
X942038D01*
X948690Y1172210D01*
X1644006Y455930D02*
Y463668D01*
X1651000Y470662D01*
X1686288D01*
X1690996Y465954D01*
Y455930D02*
Y465954D01*
X600990Y662940D02*
X1015746D01*
X1028954Y649732D01*
X448310Y840740D02*
X465074D01*
X1306830Y891540D02*
X1357122Y941832D01*
Y966642D01*
X1356750Y967014D02*
X1357122Y966642D01*
X1356750Y967014D02*
Y1017270D01*
X1326960Y1006960D02*
X1327150D01*
X1701620Y721360D02*
X1712468D01*
X1717548Y726440D01*
Y1157439D01*
X1706173Y1168814D02*
X1717548Y1157439D01*
X1698147Y1168814D02*
X1706173D01*
X1692398Y1163066D02*
X1698147Y1168814D01*
X1663700Y1163066D02*
X1692398D01*
X1636268Y1190498D02*
X1663700Y1163066D01*
X1595120Y955802D02*
X1600200Y960882D01*
X1547622Y955802D02*
X1595120D01*
X1538360Y965064D02*
X1547622Y955802D01*
X1538360Y965064D02*
Y1071880D01*
X1039250Y1054998D02*
Y1065530D01*
X1036320Y1052068D02*
X1039250Y1054998D01*
X978350Y1068128D02*
Y1096010D01*
Y1068128D02*
X1004570Y1041908D01*
X1041518D01*
X1056250Y1056640D01*
Y1065530D01*
X996442Y1115060D02*
X1005470D01*
X986874Y1124628D02*
X996442Y1115060D01*
X975360Y1124628D02*
X986874D01*
X964184Y1135804D02*
X975360Y1124628D01*
X964184Y1135804D02*
Y1170940D01*
X966724Y1173480D01*
X1053820Y1088390D02*
Y1098639D01*
X1056640Y1101459D01*
X1063381D01*
Y1122055D01*
X1068324Y1126998D01*
X952754Y1131316D02*
X957834Y1136396D01*
Y1154210D01*
X948690D02*
X957834D01*
X975360Y1155480D02*
X977470D01*
X987918Y1145032D01*
X1034516D01*
X1053820Y1125728D01*
Y1112520D02*
Y1125728D01*
X938022Y1102360D02*
X951230D01*
X932942Y1107440D02*
X938022Y1102360D01*
X932942Y1107440D02*
Y1162812D01*
X1020064Y1173480D02*
X1023620Y1169924D01*
X1002030Y1173480D02*
X1020064D01*
X492370Y1036320D02*
X505714D01*
X1292502Y1019960D02*
X1309560D01*
X1288288Y1015746D02*
X1292502Y1019960D01*
X1274318Y1015746D02*
X1288288D01*
X1268984Y1021080D02*
X1274318Y1015746D01*
X1268984Y1021080D02*
Y1054862D01*
X1290574Y1076452D01*
X1620200Y1025720D02*
Y1076452D01*
X1326960Y1013460D02*
X1334262D01*
X1336802Y1016000D01*
Y1071626D01*
X1331976Y1076452D02*
X1336802Y1071626D01*
X1002030Y1155980D02*
X1069822D01*
X1083564Y1142238D01*
Y1085596D02*
Y1142238D01*
X1063498Y1065530D02*
X1083564Y1085596D01*
X1056250Y1065530D02*
X1063498D01*
X1005470Y1089660D02*
X1016762D01*
X1031748Y1104646D01*
X1036320D02*
Y1112520D01*
X600850Y1108710D02*
Y1116101D01*
X604520Y1119771D01*
X671945D01*
X685521Y1106195D01*
Y1026135D02*
Y1106195D01*
X677926Y1018540D02*
X685521Y1026135D01*
X662630Y1018540D02*
X677926D01*
X532638Y1156716D02*
X591820Y1097534D01*
X614680D01*
X618350Y1101204D01*
Y1108710D01*
X530092Y1094344D02*
Y1102360D01*
X533140Y1105408D01*
X556348D01*
X569302Y1092454D01*
X621284D01*
X640080Y1111250D01*
X670560D01*
X680441Y1101369D01*
Y1057530D02*
Y1101369D01*
X609220Y1057530D02*
X680441D01*
X608330Y1056640D02*
X609220Y1057530D01*
X608330Y956310D02*
Y1056640D01*
Y956310D02*
X673100Y891540D01*
X475118Y1094094D02*
Y1102360D01*
X469784Y1107694D02*
X475118Y1102360D01*
X429768Y1107694D02*
X469784D01*
X421894Y1099820D02*
X429768Y1107694D01*
X421894Y1044702D02*
Y1099820D01*
X416560Y1039368D02*
X421894Y1044702D01*
X404622Y1039368D02*
X416560D01*
X397510Y1046480D02*
X404622Y1039368D01*
X397510Y1046480D02*
Y1092200D01*
X393866Y1095844D02*
X397510Y1092200D01*
X386426Y1095844D02*
X393866D01*
X399400Y1118250D02*
X402590Y1115060D01*
Y1089170D02*
Y1115060D01*
Y1089170D02*
X406400Y1085360D01*
X412772D01*
Y1094860D02*
X414528D01*
Y1099820D02*
X435762Y1121054D01*
Y1145144D01*
X461264Y816610D02*
X485394Y840740D01*
X436880Y816610D02*
X461264D01*
X424180Y829310D02*
X436880Y816610D01*
X424180Y829310D02*
Y889000D01*
X442468Y907288D01*
Y982726D01*
X441960Y983234D02*
X442468Y982726D01*
X435762Y1153160D02*
X439318Y1156716D01*
X714756D02*
X717550Y1153922D01*
X773176D01*
X797306Y1178052D01*
X894080D01*
X907288Y1164844D01*
Y1087120D02*
Y1164844D01*
Y1087120D02*
X917448Y1076960D01*
X929780Y1021220D02*
X962914Y1054354D01*
Y1087120D01*
X960374Y1089660D02*
X962914Y1087120D01*
X1531620Y759460D02*
X1543812D01*
X1564386Y738886D01*
X1559306Y714248D02*
X1560830Y712724D01*
Y497840D02*
Y712724D01*
X1548638Y485648D02*
X1560830Y497840D01*
X1534042Y485648D02*
X1548638D01*
X1526930Y492760D02*
X1534042Y485648D01*
X1526930Y492760D02*
Y501650D01*
X1531620Y734060D02*
X1549654D01*
X1555242Y728472D01*
X1562354D01*
X1569466Y721360D01*
Y516610D02*
X1572146Y513929D01*
X1102500Y1000760D02*
Y1008380D01*
X1107326Y1013206D01*
X1129792D01*
X1157478Y985520D01*
Y880618D02*
Y985520D01*
X1437500Y1164336D02*
Y1165860D01*
X1447800Y1164336D02*
X1495806Y1116330D01*
Y748030D02*
Y1116330D01*
X1223518Y776732D02*
X1407238D01*
X1411896Y772074D01*
X1427558D01*
X1432216Y776732D01*
X1465580D01*
X1480312Y762000D01*
Y680720D02*
Y762000D01*
Y680720D02*
X1490472Y670560D01*
X1531620D01*
X1681734Y734060D02*
X1701620D01*
X1673352Y742442D02*
X1681734Y734060D01*
X1421638Y783082D02*
X1426718Y788162D01*
Y870966D01*
X1409700Y887984D02*
X1426718Y870966D01*
X1409700Y887984D02*
Y1001154D01*
X1403490Y1007364D02*
X1409700Y1001154D01*
X1403490Y1007364D02*
Y1016000D01*
X1683766Y772160D02*
X1701620D01*
X1249312Y1206754D02*
X1284110Y1171956D01*
X1178306Y1206754D02*
X1249312D01*
X1160272Y1188720D02*
X1178306Y1206754D01*
X1160272Y1089668D02*
Y1188720D01*
Y1089668D02*
X1168690Y1081250D01*
X1188470D01*
Y1134364D02*
Y1141250D01*
X1173480Y1134364D02*
X1188470D01*
X1167660Y1128544D02*
X1173480Y1134364D01*
X1167660Y1092440D02*
Y1128544D01*
Y1092440D02*
X1206514D01*
X1209294Y1089660D01*
Y1038720D02*
Y1089660D01*
X1177430Y1006856D02*
X1209294Y1038720D01*
X1177430Y995680D02*
Y1006856D01*
X1600200Y970720D02*
Y977900D01*
X1603502Y981202D01*
X1687629D01*
X1702107Y995680D01*
Y1159255D01*
X448310Y840740D02*
Y988822D01*
X429768Y1007364D02*
X448310Y988822D01*
X429768Y1007364D02*
Y1092200D01*
X432428Y1094860D01*
X438772D01*
Y1075860D02*
X482720D01*
X493980Y1087120D01*
Y1094344D01*
X452762Y1145144D02*
X497840D01*
X510980Y1132004D01*
Y1094344D02*
Y1132004D01*
X396558Y757538D02*
Y767842D01*
X420942Y792226D01*
X436880D01*
X811130Y1165860D02*
X929780Y1047210D01*
X1356750Y1017270D02*
Y1050934D01*
X1366120Y1060304D01*
Y1143146D01*
X1356106Y1153160D02*
X1366120Y1143146D01*
X1356106Y1153160D02*
Y1180084D01*
X1361440Y1185418D01*
X1488440D01*
X1613724Y1060134D01*
Y1037017D02*
Y1060134D01*
X1610200Y1033493D02*
X1613724Y1037017D01*
X1610200Y1025720D02*
Y1033493D01*
X488696Y534070D02*
X497520D01*
X600990Y637540D01*
X1188470Y1141250D02*
Y1189486D01*
X1188974Y1189990D01*
X1526930Y485766D02*
X1539355Y473341D01*
X1567435D01*
X1572400Y468376D01*
Y458470D02*
Y468376D01*
X1241920Y995680D02*
Y1020826D01*
X375030Y975234D02*
X389763D01*
X364744Y985520D02*
X375030Y975234D01*
X364744Y985520D02*
Y1148334D01*
X375920Y1159510D01*
X411480D01*
X416900Y1154090D01*
Y1144894D02*
Y1154090D01*
X1690996Y465954D02*
X1702562Y477520D01*
Y528320D01*
X1688846Y542036D02*
X1702562Y528320D01*
X1609598Y542036D02*
X1688846D01*
X1604264Y547370D02*
X1609598Y542036D01*
X1604264Y547370D02*
Y629158D01*
X1012036Y990600D02*
X1037082D01*
X1044740Y982942D01*
X1113358D01*
X1120000Y989584D01*
Y1000760D01*
X1606620Y631514D02*
Y709860D01*
X1605026Y629920D02*
X1606620Y631514D01*
X407558Y740044D02*
Y757538D01*
X396240Y728726D02*
X407558Y740044D01*
X364490Y728726D02*
X396240D01*
X357124Y721360D02*
X364490Y728726D01*
X357124Y690880D02*
Y721360D01*
X1468374Y632460D02*
X1531620D01*
X1675270Y504190D02*
Y526542D01*
X1550670Y537464D02*
Y702310D01*
X1544320Y708660D02*
X1550670Y702310D01*
X1531620Y708660D02*
X1544320D01*
X341376Y459070D02*
Y477012D01*
X360680Y496316D01*
X1572146Y527190D02*
X1572260Y527304D01*
X1527810Y447040D02*
Y457200D01*
Y447040D02*
X1540002Y434848D01*
X1708404D01*
X1720596Y447040D01*
Y614680D01*
X1715516Y619760D02*
X1720596Y614680D01*
X1701620Y619760D02*
X1715516D01*
X1443990Y586740D02*
X1484199Y546531D01*
X1543481D01*
X1545590Y548640D01*
Y680720D01*
X1543050Y683260D02*
X1545590Y680720D01*
X1531620Y683260D02*
X1543050D01*
X1516888D02*
X1531620D01*
X1502410Y697738D02*
X1516888Y683260D01*
X1502410Y697738D02*
Y710631D01*
X1507236Y715457D01*
Y1053338D01*
X1525778Y1071880D01*
X1538360D01*
X1543930Y501650D02*
Y512572D01*
X1518158D02*
X1543930D01*
X1420990Y1016000D02*
X1432814D01*
X1467104Y1050290D01*
X1600200Y1025720D02*
Y1050290D01*
X378460Y1077844D02*
X386426D01*
X375158Y1081146D02*
X378460Y1077844D01*
X375158Y1081146D02*
Y1103772D01*
X399400Y1128014D01*
X341376Y534070D02*
Y566420D01*
X388112Y613156D01*
Y657860D01*
X375920Y670052D02*
X388112Y657860D01*
X355600Y670052D02*
X375920D01*
X345300Y680352D02*
X355600Y670052D01*
X345300Y680352D02*
Y727316D01*
X355600Y737616D01*
X386080D01*
X396558Y748094D01*
Y757538D01*
X448310Y1186942D02*
X740048D01*
X761130Y1165860D01*
X1628026Y502920D02*
Y511442D01*
X1630680Y514096D02*
X1660398D01*
X415036Y459070D02*
X441868D01*
X488696Y325882D02*
Y459070D01*
X1660398Y497078D02*
X1662176D01*
X1664208Y499110D01*
X1675270D02*
Y504190D01*
X1341120Y1135888D02*
X1354950Y1122058D01*
X1313802Y1135888D02*
X1341120D01*
X1301610Y1148080D02*
X1313802Y1135888D01*
X475370Y1036320D02*
Y1052712D01*
X487680Y1065022D01*
X499042D01*
X510980Y1076960D01*
X1580200Y1025720D02*
Y1056640D01*
X1564960Y1071880D02*
X1580200Y1056640D01*
X1555360Y1071880D02*
X1564960D01*
X1188470Y1121250D02*
X1283416D01*
X1301610Y1139444D01*
X939280Y981100D02*
X992024D01*
X929780Y990600D02*
X939280Y981100D01*
X929780Y990600D02*
Y1000760D01*
X1420000Y1119238D02*
Y1165860D01*
Y1119238D02*
X1480312Y1058926D01*
X419694Y1196594D02*
X427990D01*
X416900Y1193800D02*
X419694Y1196594D01*
X475370Y853050D02*
X487680Y840740D01*
X475370Y853050D02*
Y1036320D01*
X389382Y1016254D02*
X393192Y1012444D01*
X386426Y1077844D02*
X389382D01*
X1545310Y449580D02*
Y457200D01*
Y449580D02*
X1547850Y447040D01*
X1587360D01*
X1589900Y449580D01*
Y458470D01*
X451637Y1094094D02*
X457618D01*
X447690Y1090147D02*
X451637Y1094094D01*
X442977Y1094860D02*
X447690Y1090147D01*
X438772Y1094860D02*
X442977D01*
X1645526Y495300D02*
Y502920D01*
X1592580Y491744D02*
X1641970D01*
X1589646Y494678D02*
X1592580Y491744D01*
X1589646Y494678D02*
Y502920D01*
X1437500Y1165860D02*
Y1173480D01*
X1433944Y1177036D02*
X1437500Y1173480D01*
X1389380Y1177036D02*
X1433944D01*
X1386700Y1174356D02*
X1389380Y1177036D01*
X1386700Y1165860D02*
Y1174356D01*
X1673996Y447684D02*
Y455930D01*
X1671320Y445008D02*
X1673996Y447684D01*
X1630680Y445008D02*
X1671320D01*
X1627006Y448682D02*
X1630680Y445008D01*
X1627006Y448682D02*
Y455930D01*
X510980Y1085156D02*
Y1094344D01*
Y1085156D02*
X519176Y1076960D01*
X537464D01*
X547092Y1086588D02*
Y1094344D01*
X951230Y1089660D02*
X956564Y1094994D01*
X962914D01*
Y1109726D01*
X956564D02*
X962914D01*
X951230Y1115060D02*
X956564Y1109726D01*
X1443990Y612140D02*
Y637540D01*
X1589646Y480822D02*
X1589900Y480568D01*
Y458470D02*
Y480568D01*
X1609598Y455930D02*
X1627006D01*
X1607058Y458470D02*
X1609598Y455930D01*
X1589900Y458470D02*
X1607058D01*
X967740Y1096010D02*
X978350D01*
X961390Y1089660D02*
X967740Y1096010D01*
X357886Y386750D02*
X431546D01*
X357886D02*
Y409702D01*
X331470Y436118D02*
X357886Y409702D01*
X331470Y436118D02*
Y491490D01*
X341376Y501396D01*
Y534070D01*
X415036D02*
X488696D01*
X341376D02*
X415036D01*
X1443990Y662940D02*
Y688340D01*
Y713740D01*
Y739140D01*
X1265268Y1106170D02*
X1337450D01*
X1260348Y1101250D02*
X1265268Y1106170D01*
X1188470Y1101250D02*
X1260348D01*
X1019454Y1000760D02*
X1046620D01*
X1018794Y1000100D02*
X1019454Y1000760D01*
X992024Y1000100D02*
X1018794D01*
X969924D02*
X992024D01*
X969264Y1000760D02*
X969924Y1000100D01*
X947280Y1000760D02*
X969264D01*
X1194930Y995680D02*
X1224420D01*
X961390Y1172210D02*
X962660Y1173480D01*
X948690Y1172210D02*
X961390D01*
X427990Y1164996D02*
Y1177290D01*
Y1164996D02*
X435762Y1157224D01*
X251460Y1229360D02*
Y1276350D01*
D33*
X510310Y840740D02*
D03*
X448310D02*
D03*
D34*
X438772Y1094860D02*
D03*
Y1075860D02*
D03*
X412772D02*
D03*
Y1085360D02*
D03*
Y1094860D02*
D03*
D43*
X1531620Y784860D02*
D03*
Y772160D02*
D03*
Y759460D02*
D03*
Y746760D02*
D03*
Y734060D02*
D03*
Y721360D02*
D03*
Y708660D02*
D03*
Y695960D02*
D03*
Y683260D02*
D03*
Y670560D02*
D03*
Y657860D02*
D03*
Y645160D02*
D03*
Y632460D02*
D03*
Y619760D02*
D03*
Y607060D02*
D03*
Y594360D02*
D03*
Y581660D02*
D03*
Y568960D02*
D03*
Y556260D02*
D03*
X1701620D02*
D03*
Y568960D02*
D03*
Y581660D02*
D03*
Y594360D02*
D03*
Y607060D02*
D03*
Y619760D02*
D03*
Y632460D02*
D03*
Y645160D02*
D03*
Y657860D02*
D03*
Y670560D02*
D03*
Y683260D02*
D03*
Y695960D02*
D03*
Y708660D02*
D03*
Y721360D02*
D03*
Y734060D02*
D03*
Y746760D02*
D03*
Y759460D02*
D03*
Y772160D02*
D03*
Y784860D02*
D03*
D44*
X1606620Y709860D02*
D03*
D47*
X1012036Y990600D02*
D03*
X992024Y981100D02*
D03*
D48*
Y1000100D02*
D03*
D49*
X1702107Y1159255D02*
D03*
X1686304Y1175057D02*
D03*
X1663956Y1121103D02*
D03*
D50*
X1648153Y1136906D02*
D03*
D60*
X864870Y1054710D02*
D03*
Y1086510D02*
D03*
D61*
X762630Y1078940D02*
D03*
Y1008940D02*
D03*
D62*
X662630Y1069340D02*
D03*
Y1018540D02*
D03*
Y1043940D02*
D03*
D63*
X951230Y1115060D02*
D03*
Y1102360D02*
D03*
Y1089660D02*
D03*
Y1076960D02*
D03*
X1005470D02*
D03*
Y1089660D02*
D03*
Y1102360D02*
D03*
Y1115060D02*
D03*
D64*
X978350Y1096010D02*
D03*
D65*
X975360Y1155480D02*
D03*
Y1173480D02*
D03*
X948690Y1154210D02*
D03*
Y1172210D02*
D03*
X386426Y1077844D02*
D03*
Y1095844D02*
D03*
D66*
X1053820Y1112520D02*
D03*
X1036320D02*
D03*
X1053820Y1088390D02*
D03*
X1036320D02*
D03*
X416900Y1144894D02*
D03*
X399400D02*
D03*
X475118Y1094094D02*
D03*
X457618D02*
D03*
X1417180Y1070610D02*
D03*
X1399680D02*
D03*
X1420990Y1016000D02*
D03*
X1403490D02*
D03*
X1437500Y1165860D02*
D03*
X1420000D02*
D03*
X1386700D02*
D03*
X1369200D02*
D03*
X618350Y1108710D02*
D03*
X600850D02*
D03*
X1692770Y504190D02*
D03*
X1675270D02*
D03*
X1645526Y502920D02*
D03*
X1628026D02*
D03*
X1589646D02*
D03*
X1572146D02*
D03*
X1589900Y458470D02*
D03*
X1572400D02*
D03*
X1545310Y457200D02*
D03*
X1527810D02*
D03*
X1354950Y1106170D02*
D03*
X1337450D02*
D03*
X1301610Y1164590D02*
D03*
X1284110D02*
D03*
X1241920Y995680D02*
D03*
X1224420D02*
D03*
X1194930D02*
D03*
X1177430D02*
D03*
X1120000Y1000760D02*
D03*
X1102500D02*
D03*
X1064120D02*
D03*
X1046620D02*
D03*
X947280D02*
D03*
X929780D02*
D03*
D67*
X1039250Y1065530D02*
D03*
X1056250D02*
D03*
X435762Y1145144D02*
D03*
X452762D02*
D03*
X493980Y1094344D02*
D03*
X510980D02*
D03*
X530092D02*
D03*
X547092D02*
D03*
X475370Y1036320D02*
D03*
X492370D02*
D03*
X1538360Y1071880D02*
D03*
X1555360D02*
D03*
X1356750Y1017270D02*
D03*
X1373750D02*
D03*
X1673996Y455930D02*
D03*
X1690996D02*
D03*
X1627006D02*
D03*
X1644006D02*
D03*
X1526930Y501650D02*
D03*
X1543930D02*
D03*
D68*
X1002030Y1173480D02*
D03*
Y1155980D02*
D03*
D69*
X448310Y1186942D02*
D03*
X427990Y1177290D02*
D03*
Y1196594D02*
D03*
D70*
X380302Y895030D02*
D03*
Y1007430D02*
D03*
D71*
X340302Y895030D02*
D03*
Y1007430D02*
D03*
D72*
X389763Y919224D02*
D03*
Y927225D02*
D03*
Y975234D02*
D03*
Y983234D02*
D03*
D73*
Y933725D02*
D03*
Y938727D02*
D03*
Y943728D02*
D03*
Y948729D02*
D03*
Y953730D02*
D03*
Y958732D02*
D03*
Y963733D02*
D03*
Y968734D02*
D03*
D74*
X451558Y757538D02*
D03*
X440558D02*
D03*
X429558D02*
D03*
X418558D02*
D03*
X407558D02*
D03*
X396558D02*
D03*
X385558D02*
D03*
X374558D02*
D03*
X363558D02*
D03*
D75*
X349374Y749800D02*
D03*
D76*
Y652800D02*
D03*
X507622D02*
D03*
D77*
X499872Y749800D02*
D03*
D78*
X1600200Y998220D02*
D03*
D79*
X1580200Y1025720D02*
D03*
X1590200D02*
D03*
X1600200D02*
D03*
X1610200D02*
D03*
X1620200D02*
D03*
Y970720D02*
D03*
X1610200D02*
D03*
X1600200D02*
D03*
X1590200D02*
D03*
X1580200D02*
D03*
D80*
X1309560Y1019960D02*
D03*
Y1013460D02*
D03*
Y1006960D02*
D03*
X1326960D02*
D03*
Y1013460D02*
D03*
Y1019960D02*
D03*
D81*
X488696Y534070D02*
D03*
Y459070D02*
D03*
X415036Y534070D02*
D03*
Y459070D02*
D03*
X341376Y534070D02*
D03*
Y459070D02*
D03*
X431546Y386750D02*
D03*
Y311750D02*
D03*
X357886Y386750D02*
D03*
Y311750D02*
D03*
D82*
X1188470Y1141250D02*
D03*
Y1121250D02*
D03*
Y1081250D02*
D03*
Y1101250D02*
D03*
D83*
X1244970Y1058250D02*
D03*
Y1164250D02*
D03*
D84*
X722630Y1069340D02*
D03*
Y1018540D02*
D03*
D85*
X761130Y1165860D02*
D03*
D86*
X811130D02*
D03*
D87*
X334264Y1007364D02*
D03*
X346202D02*
D03*
X384302D02*
D03*
X334264Y895096D02*
D03*
X346202D02*
D03*
X376428D02*
D03*
X384302D02*
D03*
X376428Y1007364D02*
D03*
D88*
X379222Y650494D02*
D03*
X458978D02*
D03*
D89*
X600990Y637540D02*
D03*
X1443990Y510540D02*
D03*
D90*
X600990Y662940D02*
D03*
Y688340D02*
D03*
Y713740D02*
D03*
X1443990Y535940D02*
D03*
Y561340D02*
D03*
Y586740D02*
D03*
Y612140D02*
D03*
Y637540D02*
D03*
Y662940D02*
D03*
Y688340D02*
D03*
Y713740D02*
D03*
Y739140D02*
D03*
Y764540D02*
D03*
Y789940D02*
D03*
Y815340D02*
D03*
Y840740D02*
D03*
D91*
X600990Y430440D02*
D03*
Y920840D02*
D03*
X1433990Y430440D02*
D03*
Y920840D02*
D03*
D92*
X1354950Y1136510D02*
D03*
X1373750Y1047614D02*
D03*
X662630Y1091128D02*
D03*
X974344Y1140968D02*
D03*
X1024128Y1069340D02*
D03*
X1642110Y725932D02*
D03*
X1615186Y558546D02*
D03*
X1673606Y712986D02*
D03*
X1622044Y776478D02*
D03*
X1346962Y956818D02*
D03*
X1354074Y1089660D02*
D03*
X1337450Y1121103D02*
D03*
X1393698Y839470D02*
D03*
X1600200Y775970D02*
D03*
X1548892Y1036066D02*
D03*
X1417180D02*
D03*
X1731518Y941578D02*
D03*
X1086358Y993140D02*
D03*
X1512570Y705358D02*
D03*
X1590548Y659638D02*
D03*
X1626870Y654558D02*
D03*
X517144Y675640D02*
D03*
X338074Y604266D02*
D03*
X1501083Y619760D02*
D03*
X410972Y1049528D02*
D03*
X618490Y1043940D02*
D03*
X623316Y610108D02*
D03*
X1092708Y663702D02*
D03*
X432308Y915670D02*
D03*
X1279144Y1025906D02*
D03*
X1612646Y956056D02*
D03*
X1274572Y989330D02*
D03*
X1306830Y891540D02*
D03*
X1327150Y977138D02*
D03*
X1013968Y1052068D02*
D03*
X1068324Y1126998D02*
D03*
X952754Y1131316D02*
D03*
X932942Y1162812D02*
D03*
X1023620Y1169924D02*
D03*
X505714Y1036320D02*
D03*
X1290574Y1076452D02*
D03*
X1620200D02*
D03*
X1331976D02*
D03*
X673100Y891540D02*
D03*
X465074D02*
D03*
X1564386Y738886D02*
D03*
X1559306Y714248D02*
D03*
X1157478Y880618D02*
D03*
X1495806Y748030D02*
D03*
X1223518Y776732D02*
D03*
X1673352Y742442D02*
D03*
X1421638Y783082D02*
D03*
X1683766Y772160D02*
D03*
X1188974Y1189990D02*
D03*
X1241920Y1020826D02*
D03*
X1605026Y629920D02*
D03*
X357124Y690880D02*
D03*
X1468374Y632460D02*
D03*
X1675270Y526542D02*
D03*
X1550670Y537464D02*
D03*
X360680Y496316D02*
D03*
X1572260Y527304D02*
D03*
X1467104Y1050290D02*
D03*
X1600200D02*
D03*
X1660398Y514096D02*
D03*
X441868Y459070D02*
D03*
X488696Y325882D02*
D03*
X1660398Y497078D02*
D03*
M02*
