G04*
G04 #@! TF.GenerationSoftware,Altium Limited,Altium Designer,25.6.2 (33)*
G04*
G04 Layer_Physical_Order=2*
G04 Layer_Color=16711680*
%FSLAX44Y44*%
%MOMM*%
G71*
G04*
G04 #@! TF.SameCoordinates,8FAB441B-F1FE-446A-B751-D3DFCEB5FBC4*
G04*
G04*
G04 #@! TF.FilePolarity,Positive*
G04*
G01*
G75*
%ADD18C,0.2540*%
%ADD49C,1.1500*%
%ADD50R,1.1500X1.1500*%
%ADD84C,2.1000*%
%ADD85R,1.6000X1.6000*%
%ADD86C,1.6000*%
%ADD87C,0.6096*%
%ADD88C,1.0000*%
%ADD89R,1.6650X1.6650*%
%ADD90C,1.6650*%
%ADD91C,3.8100*%
%ADD92C,1.2700*%
D18*
X673100Y891540D02*
X1306830D01*
X465074D02*
X673100D01*
X874922Y1052068D02*
X906164Y1020826D01*
X1393497Y1175057D02*
X1686304D01*
X1365303D02*
X1393497D01*
X1327150Y977138D02*
X1591564D01*
X1286764D02*
X1327150D01*
X1290574Y1076452D02*
X1331976D01*
X1354950Y1136510D02*
X1393497Y1175057D01*
X1702107Y1131623D02*
Y1159255D01*
X1635252Y1064768D02*
X1702107Y1131623D01*
X1390904Y1064768D02*
X1635252D01*
X1373750Y1047614D02*
X1390904Y1064768D01*
X662630Y1091128D02*
X749300Y1177798D01*
X799192D01*
X811130Y1165860D01*
X968248Y1147064D02*
X974344Y1140968D01*
X924560Y1147064D02*
X968248D01*
X922274Y1144778D02*
X924560Y1147064D01*
X922274Y1144778D02*
X997712Y1069340D01*
X1024128D01*
X1373632Y725932D02*
X1642110D01*
X636550Y723900D02*
X1373632Y725932D01*
X600990Y688340D02*
X636550Y723900D01*
X1491996Y558546D02*
X1615186D01*
X1443990Y510540D02*
X1491996Y558546D01*
X1673606Y631190D02*
Y712986D01*
X1647532Y605116D02*
X1673606Y631190D01*
X1498135Y605116D02*
X1647532D01*
X1454359Y561340D02*
X1498135Y605116D01*
X1443990Y561340D02*
X1454359D01*
X1610360Y764794D02*
X1622044Y776478D01*
X1465326Y764794D02*
X1610360D01*
X1452372Y777748D02*
X1465326Y764794D01*
X1437640Y777748D02*
X1452372D01*
X1431855Y783533D02*
X1437640Y777748D01*
X1431855Y783533D02*
Y787400D01*
X1424924Y794331D02*
X1431855Y787400D01*
X1415272Y794331D02*
X1424924D01*
X1360932Y848671D02*
X1415272Y794331D01*
X1360932Y848671D02*
Y942848D01*
X1346962Y956818D02*
X1360932Y942848D01*
X1354074Y1089660D02*
X1632513D01*
X1663956Y1121103D01*
X1337450D02*
X1663956D01*
X1393698Y839470D02*
X1430020Y803148D01*
X1474470D01*
X1501648Y775970D01*
X1600200D01*
X1417180Y1036066D02*
X1548892D01*
X1669434Y1003662D02*
X1731518Y941578D01*
X1273940Y1003662D02*
X1669434D01*
X1263417Y993140D02*
X1273940Y1003662D01*
X1086358Y993140D02*
X1263417D01*
X1512570Y705358D02*
X1544828D01*
X1590548Y659638D01*
X1621657Y649345D02*
X1626870Y654558D01*
X1579626Y649345D02*
X1621657D01*
X1553331Y675640D02*
X1579626Y649345D01*
X517144Y675640D02*
X1553331D01*
X338074Y604266D02*
X349504Y592836D01*
X1413510D01*
X1431798Y574548D01*
X1455871D01*
X1501083Y619760D01*
X410972Y1049528D02*
X612902D01*
X618490Y1043940D01*
X623316Y610108D02*
X676910Y663702D01*
X1092708D01*
X432308Y915670D02*
X551434D01*
X569214Y897890D01*
X619506D01*
X623824Y902208D01*
X978154D01*
X1079246Y1003300D01*
X1256538D01*
X1279144Y1025906D01*
X1591564Y977138D02*
X1612646Y956056D01*
X1274572Y989330D02*
X1286764Y977138D01*
X874922Y1052068D02*
X1013968D01*
X761130Y1165860D02*
X874922Y1052068D01*
X957072Y1126998D02*
X1068324D01*
X952754Y1131316D02*
X957072Y1126998D01*
X932942Y1162812D02*
X940054Y1169924D01*
X1023620D01*
X505714Y1036320D02*
X539242Y1002792D01*
X755650D01*
X762254Y1009396D01*
X1253511D01*
X1268984Y1024869D01*
Y1078738D01*
X1365303Y1175057D01*
X1331976Y1076452D02*
X1620200D01*
X1564386Y738886D02*
X1650746D01*
X1652270Y737362D01*
Y720598D02*
Y737362D01*
X1645920Y714248D02*
X1652270Y720598D01*
X1559306Y714248D02*
X1645920D01*
X1157478Y880618D02*
X1298956Y739140D01*
X1443990D01*
X1495806Y748030D02*
X1548280D01*
X1553786Y753536D01*
X1645494D01*
X1662430Y736600D01*
Y653288D02*
Y736600D01*
X1649222Y640080D02*
X1662430Y653288D01*
X1491669Y640080D02*
X1649222D01*
X1472621Y621032D02*
X1491669Y640080D01*
X1452883Y621032D02*
X1472621D01*
X1443990Y612140D02*
X1452883Y621032D01*
X600990Y713740D02*
X661950Y774700D01*
X1221486D01*
X1223518Y776732D01*
X1656334Y759460D02*
X1673352Y742442D01*
X1486916Y759460D02*
X1656334D01*
X1479804Y752348D02*
X1486916Y759460D01*
X1437640Y752348D02*
X1479804D01*
X1421638Y768350D02*
X1437640Y752348D01*
X1421638Y768350D02*
Y783082D01*
X1683766Y614172D02*
Y772160D01*
X1650492Y580898D02*
X1683766Y614172D01*
X1488948Y580898D02*
X1650492D01*
X1443990Y535940D02*
X1488948Y580898D01*
X1188974Y1189990D02*
X1690677D01*
X1702107Y1178560D01*
Y1159255D02*
Y1178560D01*
X906164Y1020826D02*
X1241920D01*
X1493099Y629920D02*
X1605026D01*
X1478280Y615101D02*
X1493099Y629920D01*
X1472351Y615101D02*
X1478280D01*
X1443990Y586740D02*
X1472351Y615101D01*
X357124Y690880D02*
X448303Y599701D01*
X719081D01*
X756158Y636778D01*
X1368298D01*
X1381252Y649732D01*
X1451102D01*
X1468374Y632460D01*
X1664348Y537464D02*
X1675270Y526542D01*
X1550670Y537464D02*
X1664348D01*
X360680Y496316D02*
X1541272D01*
X1572260Y527304D01*
X1467104Y1050290D02*
X1600200D01*
X1485392Y339090D02*
X1660398Y514096D01*
X561848Y339090D02*
X1485392D01*
X441868Y459070D02*
X561848Y339090D01*
X488696Y325882D02*
X1489202D01*
X1660398Y497078D01*
D49*
X1702107Y1159255D02*
D03*
X1686304Y1175057D02*
D03*
X1663956Y1121103D02*
D03*
D50*
X1648153Y1136906D02*
D03*
D84*
X722630Y1069340D02*
D03*
Y1018540D02*
D03*
D85*
X761130Y1165860D02*
D03*
D86*
X811130D02*
D03*
D87*
X334264Y1007364D02*
D03*
X346202D02*
D03*
X384302D02*
D03*
X334264Y895096D02*
D03*
X346202D02*
D03*
X376428D02*
D03*
X384302D02*
D03*
X376428Y1007364D02*
D03*
D88*
X379222Y650494D02*
D03*
X458978D02*
D03*
D89*
X600990Y637540D02*
D03*
X1443990Y510540D02*
D03*
D90*
X600990Y662940D02*
D03*
Y688340D02*
D03*
Y713740D02*
D03*
X1443990Y535940D02*
D03*
Y561340D02*
D03*
Y586740D02*
D03*
Y612140D02*
D03*
Y637540D02*
D03*
Y662940D02*
D03*
Y688340D02*
D03*
Y713740D02*
D03*
Y739140D02*
D03*
Y764540D02*
D03*
Y789940D02*
D03*
Y815340D02*
D03*
Y840740D02*
D03*
D91*
X600990Y430440D02*
D03*
Y920840D02*
D03*
X1433990Y430440D02*
D03*
Y920840D02*
D03*
D92*
X1354950Y1136510D02*
D03*
X1373750Y1047614D02*
D03*
X662630Y1091128D02*
D03*
X974344Y1140968D02*
D03*
X1024128Y1069340D02*
D03*
X1642110Y725932D02*
D03*
X1615186Y558546D02*
D03*
X1673606Y712986D02*
D03*
X1622044Y776478D02*
D03*
X1346962Y956818D02*
D03*
X1354074Y1089660D02*
D03*
X1337450Y1121103D02*
D03*
X1393698Y839470D02*
D03*
X1600200Y775970D02*
D03*
X1548892Y1036066D02*
D03*
X1417180D02*
D03*
X1731518Y941578D02*
D03*
X1086358Y993140D02*
D03*
X1512570Y705358D02*
D03*
X1590548Y659638D02*
D03*
X1626870Y654558D02*
D03*
X517144Y675640D02*
D03*
X338074Y604266D02*
D03*
X1501083Y619760D02*
D03*
X410972Y1049528D02*
D03*
X618490Y1043940D02*
D03*
X623316Y610108D02*
D03*
X1092708Y663702D02*
D03*
X432308Y915670D02*
D03*
X1279144Y1025906D02*
D03*
X1612646Y956056D02*
D03*
X1274572Y989330D02*
D03*
X1306830Y891540D02*
D03*
X1327150Y977138D02*
D03*
X1013968Y1052068D02*
D03*
X1068324Y1126998D02*
D03*
X952754Y1131316D02*
D03*
X932942Y1162812D02*
D03*
X1023620Y1169924D02*
D03*
X505714Y1036320D02*
D03*
X1290574Y1076452D02*
D03*
X1620200D02*
D03*
X1331976D02*
D03*
X673100Y891540D02*
D03*
X465074D02*
D03*
X1564386Y738886D02*
D03*
X1559306Y714248D02*
D03*
X1157478Y880618D02*
D03*
X1495806Y748030D02*
D03*
X1223518Y776732D02*
D03*
X1673352Y742442D02*
D03*
X1421638Y783082D02*
D03*
X1683766Y772160D02*
D03*
X1188974Y1189990D02*
D03*
X1241920Y1020826D02*
D03*
X1605026Y629920D02*
D03*
X357124Y690880D02*
D03*
X1468374Y632460D02*
D03*
X1675270Y526542D02*
D03*
X1550670Y537464D02*
D03*
X360680Y496316D02*
D03*
X1572260Y527304D02*
D03*
X1467104Y1050290D02*
D03*
X1600200D02*
D03*
X1660398Y514096D02*
D03*
X441868Y459070D02*
D03*
X488696Y325882D02*
D03*
X1660398Y497078D02*
D03*
M02*
